<?xml version="1.0" standalone="no"?>
<!DOCTYPE svg PUBLIC "-//W3C//DTD SVG 20010904//EN"
 "http://www.w3.org/TR/2001/REC-SVG-20010904/DTD/svg10.dtd">
<svg version="1.0" xmlns="http://www.w3.org/2000/svg"
 width="800.000000pt" height="800.000000pt" viewBox="0 0 800.000000 800.000000"
 preserveAspectRatio="xMidYMid meet">

<g transform="translate(0.000000,800.000000) scale(0.100000,-0.100000)"
fill="#000000" stroke="none">
<path d="M0 4000 l0 -4000 1654 0 1655 0 -4 33 c-6 43 -42 289 -60 407 -8 52
-22 142 -30 200 -28 189 -86 545 -92 560 -4 8 -5 19 -4 25 1 5 -2 36 -8 70
-20 118 -41 249 -41 261 0 7 31 23 70 35 69 22 70 23 91 3 12 -10 35 -41 51
-69 17 -27 28 -43 25 -35 -2 8 -1 23 2 33 7 18 8 18 21 1 13 -16 13 -17 0 -9
-8 4 -6 -1 5 -12 17 -17 21 -18 31 -5 9 13 12 9 18 -20 11 -61 35 -100 57 -93
15 5 19 1 19 -17 4 -168 9 -230 24 -276 10 -28 19 -52 21 -52 2 0 1 28 -2 62
-5 45 -3 59 5 54 8 -5 12 0 12 13 0 23 35 37 55 21 10 -8 14 -8 18 2 4 10 6
10 6 1 1 -7 8 -13 17 -13 12 0 14 -4 6 -12 -15 -19 -49 -180 -61 -293 -7 -55
-14 -116 -17 -135 -3 -19 -9 -107 -13 -195 -7 -130 -14 -181 -39 -270 -44
-158 -49 -190 -29 -182 18 7 27 -12 27 -58 l0 -34 219 -1 c170 0 220 2 224 12
4 10 6 10 6 1 1 -9 21 -13 69 -13 l67 0 -25 20 c-20 16 -22 20 -7 20 9 0 25
-9 34 -20 20 -23 88 -28 96 -7 4 9 7 9 18 0 25 -25 38 -16 26 18 -10 24 -17
30 -35 26 -13 -3 -41 -1 -61 4 -21 5 -52 10 -70 11 -19 1 -33 9 -36 19 -3 9
-15 19 -25 22 -11 3 -20 12 -20 21 0 9 -7 16 -15 16 -8 0 -15 6 -15 14 0 9 8
12 26 8 16 -3 23 -9 20 -19 -3 -7 1 -16 10 -20 20 -8 31 4 16 19 -7 7 -12 21
-12 31 0 15 -5 18 -25 15 -13 -3 -22 -1 -19 3 3 5 18 9 34 9 25 0 29 -4 27
-22 -2 -20 3 -23 35 -25 29 -2 36 1 31 12 -3 8 -9 12 -14 9 -5 -3 -17 0 -26 5
-16 9 -16 10 5 11 12 0 22 5 22 12 0 17 40 -23 40 -41 1 -15 80 -81 97 -81 9
0 38 43 82 120 27 48 37 56 32 28 -2 -14 11 -8 25 10 16 20 18 36 5 27 -24
-14 -18 18 14 80 19 36 35 77 35 90 0 13 4 27 10 30 6 3 10 28 10 55 0 27 5
52 11 55 6 4 8 14 5 22 -3 8 1 30 9 50 8 19 15 46 15 59 0 12 11 55 25 93 31
84 45 247 45 525 1 136 -2 181 -12 188 -8 4 -9 8 -2 8 8 0 13 120 16 413 3
226 9 420 13 429 4 10 11 15 16 12 5 -3 9 0 9 5 0 6 -4 11 -10 11 -6 0 -10 81
-10 222 0 122 -4 218 -8 213 -5 -6 -21 -57 -36 -115 -48 -189 -99 -309 -158
-372 -7 -7 -28 -31 -46 -53 -60 -71 -235 -245 -248 -245 -6 0 -22 -13 -35 -29
-13 -16 -27 -27 -31 -25 -4 3 -8 1 -8 -4 0 -5 -13 -9 -30 -10 -16 0 -30 3 -30
8 0 4 -11 11 -24 14 -21 5 -106 78 -106 91 0 9 -93 95 -103 95 -16 0 205 -224
240 -243 l33 -18 98 70 c99 70 152 121 212 201 19 25 55 70 81 100 26 30 72
92 102 138 30 46 57 80 60 75 2 -4 5 -40 6 -80 2 -53 -6 -102 -28 -185 -29
-108 -84 -332 -118 -486 l-17 -72 35 -36 c19 -20 28 -35 22 -33 -7 2 -73 64
-147 137 -151 149 -212 188 -247 156 -10 -9 -16 -20 -14 -24 7 -12 -16 -27
-54 -34 -26 -5 -32 -3 -28 9 5 11 1 12 -19 5 -27 -11 -74 -4 -74 11 0 4 18 14
41 20 37 12 39 14 19 21 -16 6 -39 1 -81 -18 -33 -15 -61 -25 -64 -22 -4 4
-23 71 -81 293 -19 72 -49 109 -81 100 -13 -3 -32 -1 -43 5 -23 12 -50 60 -50
90 0 22 -25 55 -115 146 -55 56 -105 93 -105 79 0 -4 22 -30 48 -58 103 -111
139 -195 173 -402 11 -66 29 -164 40 -219 18 -84 19 -101 7 -112 -22 -23 -363
-163 -431 -178 -26 -6 -29 -3 -52 46 -14 29 -28 70 -31 90 -5 29 -11 38 -27
38 -11 0 -25 -7 -31 -16 -10 -14 -14 -13 -34 5 -20 16 -21 21 -9 32 25 23 -8
85 -39 74 -7 -2 -21 3 -33 11 -17 12 -21 13 -21 2 0 -8 5 -19 12 -26 6 -6 8
-15 3 -19 -4 -5 -10 -2 -12 5 -7 19 -23 14 -23 -8 0 -11 6 -20 14 -20 9 0 12
-7 9 -20 -4 -14 1 -21 21 -26 20 -5 25 -11 21 -25 -4 -11 -2 -19 4 -19 6 0 11
5 11 10 0 6 8 10 18 10 14 -1 14 -3 -5 -19 -13 -11 -23 -26 -23 -35 0 -9 -4
-16 -10 -16 -5 0 -10 -12 -10 -27 0 -32 -10 -25 -14 11 -2 16 3 27 13 31 14 6
14 8 -3 17 -13 8 -20 7 -26 -3 -6 -9 -14 -3 -29 22 -12 19 -21 41 -21 49 0 9
-4 20 -9 25 -13 15 -103 275 -150 435 -13 41 -26 87 -31 101 -4 14 -33 68 -64
119 -85 141 -172 317 -196 398 -28 92 -23 147 16 203 16 22 53 79 83 127 l53
87 -6 180 c-3 99 -15 398 -26 665 -11 267 -20 497 -20 512 l0 27 36 -24 c31
-21 60 -30 123 -38 8 -1 18 -15 22 -31 13 -48 39 -207 44 -271 2 -33 9 -96 14
-140 15 -122 21 -333 14 -504 l-6 -153 -33 -14 c-48 -20 -90 -68 -112 -127
-21 -56 -48 -214 -39 -224 10 -10 38 26 35 44 -2 13 3 17 20 16 22 -3 30 11
12 22 -11 7 -9 80 3 91 4 4 7 1 7 -6 0 -10 4 -9 18 3 26 24 72 40 66 23 -3 -8
4 -16 15 -19 12 -3 21 -12 21 -21 0 -19 -11 -21 -28 -4 -9 9 -12 9 -12 0 0 -7
11 -17 24 -22 31 -11 43 -34 50 -90 3 -27 12 -50 24 -59 16 -13 145 -164 196
-231 6 -8 43 -44 81 -79 39 -36 103 -96 143 -134 39 -39 72 -65 72 -60 0 6
-69 77 -153 159 -170 165 -242 244 -291 319 -69 106 -122 290 -111 388 30 272
35 347 23 347 -12 0 -9 118 2 125 7 4 7 13 0 24 -5 10 -12 74 -15 141 -3 68
-8 126 -12 129 -5 3 -8 30 -9 60 0 30 2 49 4 42 6 -19 20 -2 15 19 -3 11 -10
17 -16 13 -9 -5 -1 9 39 65 4 7 46 -139 85 -297 48 -197 60 -236 83 -262 9
-11 13 -25 10 -31 -5 -8 -2 -9 9 -5 12 5 17 1 17 -13 0 -25 39 -90 53 -89 8 0
8 2 0 6 -18 7 -16 23 2 23 8 0 15 -4 15 -10 0 -5 8 -10 18 -11 15 0 15 -1 -2
-8 -17 -7 -17 -8 -2 -24 10 -9 24 -17 32 -17 9 0 14 -11 14 -29 0 -49 17 -80
47 -87 47 -12 71 -49 36 -56 -15 -3 -13 -7 9 -28 14 -14 28 -34 30 -45 2 -11
10 -19 17 -17 9 2 11 -3 7 -15 -4 -9 -4 -14 0 -11 7 8 34 -16 34 -30 0 -6 7
-13 16 -16 8 -3 13 -10 10 -15 -3 -5 1 -15 10 -22 10 -8 13 -21 10 -36 -8 -30
28 -73 55 -66 10 3 19 1 19 -3 0 -5 14 -10 31 -10 18 -1 36 -8 41 -18 5 -9 15
-16 22 -16 8 0 16 -7 20 -15 3 -10 19 -15 43 -15 21 0 51 -7 67 -15 16 -9 37
-13 48 -10 11 4 20 1 24 -8 3 -8 22 -17 42 -21 21 -3 60 -17 87 -32 52 -26 65
-29 163 -32 41 -2 53 -5 42 -12 -13 -8 -12 -10 3 -10 14 0 16 5 11 25 -4 17
-2 25 7 25 8 0 24 3 37 6 16 5 22 2 22 -9 0 -38 63 -23 74 17 4 16 8 18 18 8
17 -17 38 -15 38 4 0 12 6 15 26 10 16 -4 23 -3 20 3 -4 5 4 11 16 13 22 3 46
36 82 116 8 18 20 31 27 30 6 -2 13 10 15 27 2 16 8 31 14 33 5 2 10 8 10 13
0 6 -6 7 -12 3 -10 -6 -10 -4 0 8 7 9 15 30 17 48 4 36 31 62 57 56 10 -2 18
1 18 8 0 15 42 36 70 36 23 0 35 16 18 24 -10 5 -10 7 -1 12 16 7 17 24 3 24
-6 0 -29 -12 -51 -26 -23 -14 -43 -23 -47 -20 -3 3 -11 1 -18 -5 -7 -6 -28 -7
-48 -3 -29 5 -36 11 -36 30 0 13 -5 24 -11 24 -7 0 -9 -10 -5 -26 6 -21 4 -25
-11 -22 -10 2 -17 10 -16 16 2 7 -6 12 -16 12 -28 0 -51 10 -51 24 -1 25 -53
50 -107 51 -30 0 -57 6 -61 13 -5 8 -39 11 -105 9 -54 -2 -102 0 -109 4 -14 9
-40 0 -33 -11 12 -20 -70 20 -90 44 -18 22 -35 28 -78 33 -44 4 -58 10 -67 28
-7 13 -23 29 -36 36 -13 7 -24 18 -24 26 0 7 -9 13 -20 13 -11 0 -20 7 -20 15
0 8 -9 19 -20 25 -10 6 -17 17 -14 24 8 20 -14 30 -32 15 -12 -10 -13 -9 -8 5
3 9 1 16 -4 16 -6 0 -14 9 -17 20 -3 11 -13 20 -21 20 -17 0 -19 20 -1 20 7 1
5 6 -5 14 -22 16 -23 45 -3 52 8 4 15 10 15 15 0 4 -7 6 -15 3 -8 -3 -22 2
-32 11 -16 17 -15 17 15 10 18 -3 32 -5 32 -2 0 2 -16 22 -35 43 -34 37 -36
44 -18 91 3 7 -7 13 -24 16 -27 4 -27 4 -5 12 22 7 22 8 4 25 -11 11 -33 17
-58 16 -33 -1 -38 2 -36 18 2 11 -1 15 -7 11 -6 -3 -19 -1 -28 4 -14 8 -10 10
20 6 27 -3 37 0 37 10 0 8 -4 17 -10 20 -13 8 -8 52 10 93 15 32 33 41 45 22
4 -6 10 -8 15 -5 15 10 39 -7 59 -41 25 -42 45 -43 81 -4 15 17 38 30 51 30
34 0 159 -61 159 -78 0 -11 7 -13 30 -8 17 3 30 2 30 -3 0 -7 81 -41 97 -41
11 0 0 20 -14 24 -27 8 44 -2 117 -17 36 -8 85 -23 110 -34 28 -13 78 -23 133
-27 48 -3 118 -10 155 -15 115 -17 275 -22 312 -11 70 22 130 28 130 14 0 -7
5 -16 12 -20 7 -4 8 -3 4 4 -4 7 -2 12 4 12 6 0 13 -7 16 -15 13 -33 65 -11
72 30 6 32 12 31 12 -1 1 -16 6 -39 13 -51 11 -20 15 -21 36 -10 14 7 28 24
32 38 7 28 49 77 49 57 0 -6 3 -8 6 -5 14 14 13 96 -1 123 -8 16 -15 34 -15
41 0 6 -13 15 -28 21 -20 7 -36 24 -50 55 -21 44 -44 63 -64 51 -6 -4 -14 0
-19 7 -4 7 -11 10 -15 6 -12 -11 -8 -59 11 -125 13 -49 14 -66 5 -77 -7 -8
-17 -12 -22 -9 -5 3 -12 -3 -15 -15 -3 -12 -13 -21 -23 -21 -9 0 -29 -11 -44
-25 -15 -14 -35 -25 -45 -25 -9 0 -21 -4 -27 -10 -11 -11 -93 8 -174 40 -83
33 -224 58 -234 42 -8 -13 -76 -4 -103 14 -36 23 -126 54 -158 54 -17 0 -55 2
-85 5 -30 2 -81 5 -113 6 -35 1 -65 8 -73 17 -9 8 -24 12 -39 8 -13 -3 -27 -1
-30 5 -4 6 -13 8 -21 5 -7 -3 -16 -1 -19 5 -4 5 -11 6 -17 3 -7 -5 -8 -2 -3 6
4 7 2 16 -6 21 -12 8 -12 11 1 20 12 9 11 10 -7 6 -15 -3 -23 1 -26 14 -3 11
-1 22 4 25 6 4 6 11 -1 19 -8 9 -8 15 0 20 6 3 8 11 5 16 -4 5 1 12 10 15 9 4
14 12 11 19 -3 8 2 16 10 19 8 3 14 19 14 35 0 20 7 34 19 41 24 12 38 69 20
80 -9 6 -9 12 4 25 10 9 17 22 17 29 0 19 34 46 58 46 23 0 30 -16 11 -22 -9
-3 -9 -9 0 -25 9 -18 8 -24 -5 -31 -14 -8 -11 -11 15 -23 17 -8 31 -19 31 -26
0 -11 119 -94 152 -106 10 -3 20 -2 24 4 4 6 11 6 19 -1 8 -7 19 -9 25 -5 5 3
10 -1 10 -9 0 -11 8 -13 34 -9 30 5 36 2 52 -26 10 -17 22 -31 27 -31 5 0 22
-9 38 -21 22 -16 37 -19 61 -13 54 11 107 47 88 59 -18 11 0 25 33 25 18 0 53
-11 79 -25 26 -14 56 -25 67 -25 39 0 98 31 110 57 10 22 8 30 -14 59 -14 19
-34 34 -43 35 -9 0 -41 1 -70 1 -29 0 -50 4 -46 9 3 5 -4 9 -16 9 -11 0 -23 7
-26 14 -3 8 -33 29 -67 46 -34 17 -73 37 -87 45 -14 8 -37 15 -52 15 -15 0
-29 4 -32 9 -3 5 -26 12 -52 16 -35 5 -48 3 -57 -9 -14 -18 -103 -29 -128 -16
-12 7 -19 6 -21 -2 -2 -6 -18 1 -38 19 l-35 31 17 36 c30 62 96 87 153 56 23
-12 27 -11 50 14 30 33 31 36 5 29 -11 -3 -20 -1 -20 5 0 6 -9 12 -20 14 -17
2 -7 18 60 93 49 54 86 107 97 135 26 71 36 78 102 76 94 -3 102 -13 130 -157
29 -149 75 -284 104 -304 31 -22 33 -10 5 32 -29 45 -48 109 -51 178 -2 45 0
50 26 63 35 17 34 37 -4 72 -30 26 -31 31 -24 75 10 71 15 80 29 53 6 -13 22
-24 34 -26 18 -3 20 -7 12 -21 -10 -20 6 -40 45 -56 17 -7 17 -9 4 -12 -20 -5
-30 -35 -18 -54 5 -8 9 -10 9 -5 0 5 10 -3 23 -17 12 -15 27 -27 33 -27 6 0
17 -11 24 -25 7 -14 24 -32 38 -41 20 -13 26 -14 33 -3 7 12 9 11 10 -1 1 -8
1 -19 0 -23 -2 -14 29 -19 44 -7 12 10 24 10 59 0 25 -7 50 -10 58 -7 9 4 7 6
-4 6 -10 1 -18 5 -18 11 0 5 -21 18 -47 30 -61 27 -50 35 23 16 92 -23 144
-29 144 -18 0 6 -14 12 -32 14 -17 2 -33 8 -35 15 -5 14 134 8 175 -8 13 -5
35 -9 49 -9 20 0 24 4 18 18 -4 9 -13 36 -20 59 -26 85 -93 153 -201 204 -45
22 -87 39 -92 39 -6 0 -14 5 -17 10 -23 37 370 -76 470 -134 54 -32 75 -61 75
-102 0 -27 -5 -32 -39 -42 -21 -7 -43 -12 -50 -12 -19 0 -12 32 15 72 15 20
24 44 21 52 -6 15 -77 56 -95 56 -5 0 -9 -52 -8 -117 l1 -118 -33 -11 c-19 -6
-37 -15 -40 -21 -4 -6 -18 -13 -32 -17 -39 -11 -120 -49 -120 -56 0 -4 -21
-15 -46 -25 -42 -16 -44 -18 -30 -34 9 -10 16 -22 16 -27 0 -13 42 -39 58 -36
7 2 34 17 60 33 49 31 67 59 48 71 -7 5 -5 8 6 8 9 0 18 -8 20 -17 3 -15 5
-15 22 3 11 10 23 20 28 20 4 1 10 3 13 4 3 1 11 3 18 4 6 0 13 13 15 27 3 24
8 27 65 35 57 8 62 11 71 39 17 60 26 72 20 28 -8 -62 -90 -252 -122 -286 -43
-45 -97 -68 -176 -74 -149 -11 -446 57 -491 112 -19 25 -21 25 -22 6 -1 -12
13 -33 35 -52 36 -32 37 -34 36 -104 l0 -71 70 -26 c73 -27 141 -35 151 -18 3
6 -3 10 -14 10 -12 0 -21 4 -21 9 0 16 34 18 58 3 27 -17 36 -11 28 16 -9 28
-36 36 -51 16 -11 -16 -14 -16 -34 -2 -16 12 -19 17 -9 21 17 7 -18 37 -44 37
-10 0 -21 6 -24 14 -6 16 -44 18 -44 2 0 -5 -9 -1 -20 9 -11 10 -20 24 -20 32
0 7 -5 13 -12 13 -6 0 -9 3 -6 6 4 3 55 -7 115 -22 95 -25 126 -28 264 -29
154 0 156 0 198 28 49 33 91 95 123 182 18 51 29 66 54 79 50 23 81 72 95 149
10 52 10 70 1 79 -15 15 -15 23 1 40 18 20 37 56 37 70 0 7 6 25 14 39 16 31
30 80 27 97 -3 21 17 13 25 -10 8 -28 35 -70 41 -65 2 2 -6 42 -17 88 -22 91
-26 159 -10 159 6 0 10 14 10 31 0 25 3 30 16 25 12 -5 15 -2 9 11 -4 10 -13
41 -21 70 -7 29 -25 79 -38 113 -14 33 -20 62 -15 65 11 8 12 56 0 74 -18 28
-1 41 56 41 60 0 107 -19 123 -51 7 -12 11 -65 10 -127 -3 -171 -13 -152 83
-152 l82 0 -5 153 c-4 125 -8 158 -23 181 -10 15 -25 30 -33 33 -24 9 -16 30
15 36 39 8 87 51 114 101 16 31 21 58 21 111 0 91 -29 149 -94 185 -42 24 -55
25 -220 28 -101 2 -180 8 -187 14 -7 6 -13 19 -13 30 0 26 -78 158 -93 158 -7
0 -18 9 -25 20 -7 12 -17 18 -22 15 -5 -3 -14 4 -20 15 -6 11 -17 20 -25 20
-8 0 -15 5 -15 11 0 5 4 7 10 4 5 -3 2 7 -8 24 -9 16 -19 25 -23 19 -4 -5 -24
12 -45 38 -67 83 -147 164 -161 164 -7 0 -13 5 -13 11 0 5 -5 7 -11 3 -6 -3
-15 -1 -19 6 -5 8 -10 9 -14 2 -4 -6 8 -25 25 -43 63 -65 -9 -41 -111 35 -75
57 -188 126 -206 126 -8 0 -14 6 -14 13 0 8 -3 8 -9 -2 -7 -11 -14 -9 -37 13
-16 14 -34 26 -41 26 -7 0 -13 3 -13 8 0 23 -168 96 -247 107 -42 6 -113 28
-258 78 -72 25 -166 50 -210 56 -76 10 -232 8 -243 -4 -3 -3 2 -5 11 -5 9 0
17 -6 17 -12 0 -9 -16 -13 -48 -13 -27 0 -60 -5 -73 -12 -13 -6 -42 -15 -64
-19 -22 -3 -34 -9 -27 -11 25 -9 11 -21 -22 -18 -40 3 -70 -10 -43 -21 19 -7
23 -24 6 -24 -6 0 -24 -9 -40 -21 -25 -17 -29 -18 -29 -4 0 9 -4 14 -10 10 -5
-3 -7 -11 -4 -18 3 -8 -12 -16 -40 -23 -25 -5 -43 -6 -40 -2 3 4 -2 8 -10 8
-16 0 -17 -24 -2 -48 7 -11 4 -12 -13 -2 -12 6 -19 15 -16 21 4 5 -1 9 -9 9
-8 0 -18 -5 -21 -10 -4 -6 -11 -8 -16 -4 -5 3 -15 1 -22 -4 -7 -5 -29 -12 -49
-16 -21 -4 -43 -15 -50 -25 -16 -23 -51 -41 -77 -41 -12 0 -21 -3 -21 -8 0 -4
-22 -15 -49 -25 -38 -13 -51 -24 -60 -47 -5 -17 -15 -30 -20 -30 -6 0 -29 -17
-50 -37 -53 -51 -91 -83 -100 -83 -4 0 -14 -11 -21 -25 -7 -13 -27 -31 -45
-39 -46 -22 -165 -162 -165 -195 0 -5 -8 -17 -17 -27 -10 -10 -28 -42 -39 -73
-19 -49 -22 -53 -27 -31 -3 14 -13 241 -22 505 -8 264 -18 546 -22 628 l-6
147 -1148 0 -1149 0 0 -4000z m3770 3620 c0 -5 -7 -10 -15 -10 -8 0 -15 5 -15
10 0 6 7 10 15 10 8 0 15 -4 15 -10z m30 0 c0 -5 -4 -10 -10 -10 -5 0 -10 5
-10 10 0 6 5 10 10 10 6 0 10 -4 10 -10z m108 -7 c-10 -2 -28 -2 -40 0 -13 2
-5 4 17 4 22 1 32 -1 23 -4z m-478 -123 c0 -5 -4 -10 -10 -10 -5 0 -10 5 -10
10 0 6 5 10 10 10 6 0 10 -4 10 -10z m875 -40 c3 -5 1 -10 -4 -10 -6 0 -11 5
-11 10 0 6 2 10 4 10 3 0 8 -4 11 -10z m225 -10 c24 -15 7 -18 -20 -3 -14 7
-18 13 -10 13 8 0 22 -4 30 -10z m40 -20 c0 -5 -2 -10 -4 -10 -3 0 -8 5 -11
10 -3 6 -1 10 4 10 6 0 11 -4 11 -10z m-1211 -24 c8 -10 8 -16 -3 -25 -9 -8
-15 -8 -18 -1 -2 6 -36 -2 -87 -20 -83 -29 -119 -31 -84 -4 10 7 24 14 31 14
8 0 25 9 39 20 17 13 33 17 53 14 15 -4 31 -1 34 5 10 15 21 14 35 -3z m-194
-26 c3 -5 4 -10 1 -10 -2 0 -12 -3 -20 -6 -12 -5 -15 -2 -10 10 7 18 20 21 29
6z m-45 -40 c0 -5 -4 -10 -10 -10 -5 0 -10 5 -10 10 0 6 5 10 10 10 6 0 10 -4
10 -10z m-44 -16 c-3 -9 -6 -18 -6 -20 0 -2 -7 -4 -15 -4 -18 0 -20 26 -2 33
23 10 29 7 23 -9z m1825 -85 c13 -11 17 -18 9 -15 -8 3 -23 9 -32 12 -10 4
-18 10 -18 15 0 15 16 10 41 -12z m-1571 -43 c0 -2 -12 -12 -27 -21 l-28 -18
19 21 c17 20 36 29 36 18z m1788 -42 c-4 -3 -12 5 -18 18 -12 22 -12 22 6 6
10 -10 15 -20 12 -24z m-1253 -4 c-3 -5 -10 -10 -16 -10 -5 0 -9 5 -9 10 0 6
7 10 16 10 8 0 12 -4 9 -10z m-670 -30 c-3 -5 -11 -10 -16 -10 -6 0 -7 5 -4
10 3 6 11 10 16 10 6 0 7 -4 4 -10z m-2488 -62 c-3 -8 -6 -5 -6 6 -1 11 2 17
5 13 3 -3 4 -12 1 -19z m42 -32 c-1 -17 -2 -17 -6 -3 -2 9 -9 15 -14 12 -5 -4
-9 1 -9 9 0 10 6 13 15 10 8 -4 14 -16 14 -28z m-22 -38 c-3 -8 -6 -5 -6 6 -1
11 2 17 5 13 3 -3 4 -12 1 -19z m33 -13 c0 -8 -2 -15 -4 -15 -2 0 -6 7 -10 15
-3 8 -1 15 4 15 6 0 10 -7 10 -15z m17 -77 c-3 -7 -5 -2 -5 12 0 14 2 19 5 13
2 -7 2 -19 0 -25z m53 -29 c0 -23 7 -47 15 -55 19 -19 21 -125 3 -121 -8 1
-11 -10 -10 -33 l3 -35 -24 29 c-14 17 -29 26 -35 22 -7 -4 -12 -2 -12 3 0 6
-6 11 -14 11 -14 0 -19 14 -31 98 -7 45 -5 48 26 32 17 -10 19 -7 21 27 1 37
1 37 5 6 2 -18 8 -33 13 -33 4 0 6 8 3 19 -3 10 0 22 6 25 6 4 11 18 11 32 0
14 4 22 10 19 6 -3 10 -24 10 -46z m-163 -46 c-3 -10 -5 -4 -5 12 0 17 2 24 5
18 2 -7 2 -21 0 -30z m-171 -2 c-4 -5 0 -11 6 -14 7 -2 9 -8 5 -13 -4 -5 -12
-2 -17 6 -13 20 -12 30 1 30 5 0 8 -4 5 -9z m434 -15 c0 -14 8 -32 17 -42 16
-15 17 -15 23 2 5 13 8 8 13 -20 3 -20 2 -47 -3 -59 -8 -21 -9 -20 -9 6 -1 29
-25 38 -35 12 -9 -24 -36 -17 -47 12 -9 25 -5 85 7 105 11 18 34 7 34 -16z
m-325 -28 c4 -14 8 -18 12 -10 11 28 23 9 22 -35 -1 -27 -4 -38 -6 -25 -5 25
-55 52 -61 33 -5 -14 -42 10 -42 26 0 7 9 13 19 13 11 0 23 5 26 10 10 16 22
11 30 -12z m81 9 c11 4 14 -4 14 -35 0 -23 -4 -44 -10 -47 -5 -3 -10 -1 -10 4
0 6 -5 10 -12 9 -6 -2 -14 5 -16 15 -5 23 9 77 15 60 2 -7 11 -9 19 -6z m354
-53 c0 -13 -4 -24 -10 -24 -5 0 -10 -7 -10 -16 0 -8 -4 -12 -10 -9 -11 7 -14
68 -4 78 12 12 34 -6 34 -29z m-520 10 c0 -8 -4 -12 -10 -9 -5 3 -10 10 -10
16 0 5 5 9 10 9 6 0 10 -7 10 -16z m4927 -21 c-3 -10 -5 -4 -5 12 0 17 2 24 5
18 2 -7 2 -21 0 -30z m-4324 14 c3 3 12 1 19 -3 9 -6 -2 -11 -32 -15 -51 -7
-55 -6 -47 15 5 12 12 14 31 7 13 -6 26 -7 29 -4z m-213 -78 c0 -6 -4 -7 -10
-4 -5 3 -10 11 -10 16 0 6 5 7 10 4 6 -3 10 -11 10 -16z m-90 -28 c0 -11 -26
-22 -34 -14 -12 12 -5 23 14 23 11 0 20 -4 20 -9z m-535 -31 c-6 -9 -9 -9 -16
1 -10 17 0 34 13 21 6 -6 7 -16 3 -22z m5043 5 c-3 -3 -9 2 -12 12 -6 14 -5
15 5 6 7 -7 10 -15 7 -18z m-5084 0 c-4 -8 -10 -12 -15 -9 -14 8 -10 24 6 24
9 0 12 -6 9 -15z m452 -32 c-10 -10 -19 5 -10 18 6 11 8 11 12 0 2 -7 1 -15
-2 -18z m-77 -20 c0 -5 -4 -17 -9 -28 -8 -18 -9 -17 -9 8 -1 15 4 27 9 27 6 0
10 -3 9 -7z m5161 -6 c25 -9 40 -23 54 -50 35 -72 -6 -153 -90 -176 -53 -15
-197 -14 -212 1 -13 13 -15 69 -5 171 l6 67 106 -1 c58 0 122 -5 141 -12z
m-5143 -29 c-3 -7 -5 -2 -5 12 0 14 2 19 5 13 2 -7 2 -19 0 -25z m143 -19 c0
-16 -3 -29 -7 -29 -5 0 -8 15 -8 34 0 19 3 32 8 29 4 -2 7 -17 7 -34z m2843
-222 c20 4 27 1 27 -11 0 -9 -7 -16 -17 -16 -9 0 -14 -3 -10 -6 3 -3 1 -18 -4
-32 -9 -23 -8 -24 7 -11 10 8 28 24 40 37 24 23 58 29 69 12 9 -14 35 -12 68
4 29 16 32 14 17 -14 -9 -16 -6 -18 28 -16 20 1 50 8 66 14 16 7 38 9 50 6 11
-4 33 -7 47 -6 16 1 29 -4 33 -13 8 -22 26 -18 26 6 0 12 5 19 13 17 6 -3 12
-18 12 -34 0 -23 -4 -28 -19 -26 -13 3 -17 -1 -13 -11 7 -18 -22 -47 -46 -47
-44 0 -13 -43 54 -74 30 -14 57 -16 159 -11 67 3 126 8 131 11 5 3 6 -2 3 -10
-5 -12 6 -14 60 -12 47 2 67 -1 70 -11 9 -24 26 -14 26 16 0 28 33 61 60 61 6
0 27 7 48 16 50 23 72 26 72 12 0 -6 3 -8 7 -5 3 4 12 2 19 -4 10 -8 16 -5 24
13 9 18 26 28 78 41 37 9 91 17 121 17 44 0 56 4 72 24 10 13 29 26 43 30 13
3 26 15 29 26 3 11 13 20 22 20 9 0 13 -5 10 -10 -10 -16 15 -41 34 -35 12 3
21 -7 34 -38 9 -23 17 -50 17 -59 0 -9 5 -20 10 -23 6 -3 10 -14 10 -24 0 -10
7 -33 16 -51 9 -18 20 -62 24 -99 4 -37 13 -78 20 -91 9 -16 13 -84 14 -222 1
-109 0 -198 -1 -198 -2 0 -24 13 -49 29 -34 21 -42 30 -30 34 9 4 19 -1 25
-11 15 -27 24 -7 16 37 -4 22 -17 52 -31 66 -13 14 -24 31 -24 36 0 6 -4 8 -9
4 -5 -3 -12 -1 -16 5 -3 5 -1 10 6 10 7 0 -2 16 -21 35 -19 19 -43 35 -54 35
-11 0 -27 7 -36 15 -23 21 -117 43 -164 39 -22 -2 -45 1 -51 6 -24 20 -181 29
-212 12 -12 -7 -41 -14 -65 -16 -38 -3 -45 -7 -61 -40 -9 -20 -24 -36 -32 -36
-8 0 -15 -7 -15 -15 0 -8 -4 -15 -9 -15 -5 0 -8 -12 -7 -27 2 -16 -2 -31 -8
-35 -49 -33 -315 36 -300 77 4 8 10 15 14 15 5 0 7 12 6 28 -2 18 -12 31 -31
41 -15 7 -30 22 -32 32 -3 11 -9 19 -14 19 -5 0 -9 9 -9 20 0 11 -5 20 -11 20
-21 0 -37 34 -32 67 4 21 1 33 -6 33 -6 0 -11 -5 -11 -11 0 -5 -4 -8 -9 -5 -5
4 -11 1 -13 -6 -3 -7 -7 -5 -11 6 -4 10 -3 15 3 11 6 -3 10 -1 10 4 0 6 -7 11
-15 11 -8 0 -15 5 -15 11 0 6 -6 9 -12 6 -7 -2 -23 5 -36 17 -14 13 -39 21
-65 23 -23 1 -73 6 -111 12 -40 6 -75 7 -84 2 -9 -5 -26 -5 -38 -1 -29 12
-238 3 -291 -11 -24 -6 -53 -21 -67 -33 -29 -26 -67 -49 -72 -43 -2 2 8 18 23
36 44 50 133 142 133 136 0 -10 115 88 124 106 4 9 19 20 33 24 13 3 26 12 29
20 4 10 12 11 28 5 12 -4 34 -6 49 -3z m567 3 c0 -5 -5 -10 -11 -10 -5 0 -7 5
-4 10 3 6 8 10 11 10 2 0 4 -4 4 -10z m-30 -21 c0 -14 -5 -19 -17 -17 -23 4
-28 25 -6 31 10 3 19 5 21 6 1 0 2 -8 2 -20z m869 -1 c-20 -37 -34 -47 -52
-36 -16 8 -16 10 1 27 16 17 37 28 55 30 4 1 2 -9 -4 -21z m-879 -33 c0 -2
-10 -10 -22 -16 -21 -11 -22 -11 -9 4 13 16 31 23 31 12z m-3835 -135 c3 -5 2
-10 -4 -10 -5 0 -13 5 -16 10 -3 6 -2 10 4 10 5 0 13 -4 16 -10z m-43 -52 c-9
-9 -12 -7 -12 12 0 19 3 21 12 12 9 -9 9 -15 0 -24z m68 22 c0 -5 -5 -10 -11
-10 -5 0 -7 5 -4 10 3 6 8 10 11 10 2 0 4 -4 4 -10z m-21 -29 c14 -25 1 -35
-15 -13 -16 20 -17 32 -4 32 5 0 14 -8 19 -19z m121 -1 c0 -5 -2 -10 -4 -10
-3 0 -8 5 -11 10 -3 6 -1 10 4 10 6 0 11 -4 11 -10z m-166 -42 c4 -17 2 -28
-4 -28 -5 0 -10 14 -10 32 0 36 4 35 14 -4z m2652 -25 c-13 -53 -5 -93 13 -64
5 7 14 10 20 7 6 -4 8 -12 5 -18 -4 -6 1 -8 14 -4 11 4 23 3 26 -2 7 -11 -108
-49 -178 -58 -47 -6 -48 -6 -37 15 7 12 16 19 22 16 5 -4 9 4 9 16 0 19 2 20
17 8 15 -13 16 -11 10 16 -3 17 -4 25 -1 18 4 -10 10 -10 25 0 10 6 19 15 19
20 0 4 -4 5 -10 2 -16 -10 -11 22 6 39 26 27 47 20 40 -11z m-2603 -40 c15 -3
27 -12 27 -19 0 -12 -12 -17 -72 -28 -11 -3 -17 5 -20 25 -5 34 0 42 21 34 9
-4 28 -9 44 -12z m78 -26 c-8 -8 -11 -7 -11 4 0 20 13 34 18 19 3 -7 -1 -17
-7 -23z m2723 8 c-4 -8 -18 -18 -33 -21 -14 -3 -32 -7 -38 -10 -7 -2 -13 0
-13 5 0 13 23 29 50 34 14 2 28 5 32 6 4 0 5 -6 2 -14z m436 -20 c19 -1 51 -9
70 -18 l35 -17 -75 7 c-92 8 -122 15 -128 32 -3 10 3 11 29 5 19 -5 50 -9 69
-9z m-3270 -65 c0 -13 -1 -13 -10 0 -5 8 -10 22 -10 30 0 13 1 13 10 0 5 -8
10 -22 10 -30z m39 4 c-18 -21 -27 -17 -21 11 3 20 7 23 18 14 11 -9 11 -15 3
-25z m3266 -44 c33 -6 69 -14 80 -18 34 -11 -60 -19 -122 -11 -31 4 -64 4 -72
0 -9 -5 -32 -9 -51 -9 -41 -1 -110 -28 -110 -42 0 -16 -19 -11 -37 10 -14 16
-30 20 -76 20 -32 0 -56 4 -53 9 3 5 33 7 66 6 33 -2 63 1 65 6 8 11 -39 22
-70 17 -29 -6 -32 0 -7 19 13 10 50 12 172 9 85 -3 182 -10 215 -16z m158 -37
c-7 -2 -19 -2 -25 0 -7 3 -2 5 12 5 14 0 19 -2 13 -5z m-1378 -19 c14 -9 25
-20 25 -25 0 -6 27 -35 60 -66 33 -30 60 -61 60 -68 0 -19 -40 -65 -56 -65 -8
0 -26 11 -40 25 -24 24 -54 33 -54 17 0 -5 9 -17 20 -27 11 -10 20 -24 20 -30
0 -7 7 -18 15 -25 8 -7 12 -17 9 -22 -3 -5 3 -12 14 -15 29 -7 48 -103 24
-118 -21 -12 -101 -34 -127 -35 -11 0 -28 -9 -38 -20 -15 -18 -16 -27 -6 -63
6 -23 18 -55 27 -72 27 -47 84 -105 104 -105 21 0 22 4 6 33 -6 12 -15 38 -18
58 -7 37 -7 37 31 43 21 3 43 12 49 19 6 6 29 32 50 57 l40 44 0 -29 c0 -17 7
-43 15 -59 8 -15 15 -39 15 -52 0 -12 5 -26 10 -29 6 -3 10 -29 10 -56 0 -28
4 -59 10 -69 8 -15 6 -20 -10 -25 -11 -3 -20 -11 -20 -16 0 -6 4 -8 9 -5 5 4
20 2 33 -3 22 -9 22 -10 2 -10 -22 -1 -40 -26 -25 -36 10 -6 8 -56 -3 -74 -5
-7 -5 -15 -2 -18 3 -4 6 -1 6 5 0 7 5 12 11 12 17 0 1 -50 -26 -86 -13 -17
-35 -34 -49 -36 -14 -3 -23 -2 -21 2 4 6 -20 11 -125 22 -49 5 -163 165 -179
252 -20 108 -10 744 11 671 4 -16 6 -94 3 -173 -3 -80 -1 -141 4 -138 25 16
80 194 66 216 -3 5 1 13 10 17 13 8 12 14 -6 48 -11 22 -33 52 -50 67 -35 33
-36 42 -7 62 29 20 62 20 93 0z m-1415 -39 c0 -5 -5 -3 -10 5 -5 8 -10 20 -10
25 0 6 5 3 10 -5 5 -8 10 -19 10 -25z m2220 13 c0 -5 -6 -6 -12 -1 -7 4 -22 7
-33 5 l-20 -2 20 9 c22 9 45 4 45 -11z m-83 -10 c-3 -8 -6 -5 -6 6 -1 11 2 17
5 13 3 -3 4 -12 1 -19z m-962 -98 c3 -5 1 -10 -4 -10 -6 0 -11 5 -11 10 0 6 2
10 4 10 3 0 8 -4 11 -10z m2877 -5 c20 0 40 -3 44 -7 4 -5 23 -8 42 -8 25 0
35 -5 39 -20 3 -10 14 -22 25 -26 11 -3 17 -8 15 -10 -5 -5 -196 46 -272 72
l-40 14 55 -7 c30 -4 71 -7 92 -8z m-1277 -28 c-20 -11 -29 -3 -21 19 5 13 9
14 22 3 14 -11 14 -13 -1 -22z m358 13 c3 -11 1 -20 -4 -20 -5 0 -9 9 -9 20 0
11 2 20 4 20 2 0 6 -9 9 -20z m-1968 -40 c-3 -5 -13 -6 -21 -3 -12 4 -13 8 -3
14 15 9 32 2 24 -11z m1950 -118 c-25 -86 -77 -193 -116 -236 -52 -60 -100
-77 -216 -77 -121 0 -219 14 -343 47 -236 64 -304 132 -324 327 -6 56 6 79 19
36 4 -11 9 -18 12 -15 3 3 12 -1 20 -9 8 -8 26 -15 41 -16 82 -3 101 -5 114
-16 7 -7 27 -12 43 -11 49 1 56 -1 53 -18 -2 -13 23 -25 112 -55 110 -36 118
-37 189 -29 46 6 80 6 91 0 14 -7 32 0 79 30 37 24 74 40 92 40 17 0 28 4 24
10 -3 6 1 7 9 4 10 -4 18 1 22 11 4 9 13 14 20 11 7 -3 18 3 23 12 10 16 10
16 11 -1 0 -10 -11 -22 -24 -26 -26 -11 -38 -33 -30 -56 4 -9 0 -15 -10 -15
-9 0 -16 3 -16 8 0 4 -11 12 -25 19 -29 13 -31 4 -10 -37 12 -23 12 -28 2 -24
-24 9 -67 -14 -67 -36 0 -13 -7 -20 -20 -20 -17 0 -19 -5 -14 -24 6 -26 -18
-47 -53 -45 -13 1 -11 3 6 8 14 4 26 12 29 19 6 19 -23 14 -43 -8 -15 -17 -16
-24 -7 -45 7 -16 17 -23 27 -19 10 4 15 0 15 -11 0 -12 -5 -15 -17 -10 -12 4
-15 3 -8 -4 6 -5 22 -7 37 -4 20 4 25 9 20 22 -5 13 -3 14 10 3 21 -17 59 -2
98 40 36 38 108 177 114 222 22 145 20 135 24 93 2 -21 -4 -63 -13 -95z
m-3065 98 c0 -11 -7 -20 -15 -20 -15 0 -21 21 -8 33 12 13 23 7 23 -13z m2030
-6 c0 -48 32 -169 55 -210 29 -50 71 -83 173 -135 42 -22 69 -38 60 -35 -12 4
-18 0 -18 -10 0 -15 8 -20 50 -29 14 -2 43 -9 65 -14 22 -6 54 -13 70 -17 17
-4 37 -12 45 -19 8 -8 32 -16 52 -20 55 -10 65 -28 36 -63 -12 -16 -36 -35
-51 -42 -16 -7 -48 -27 -71 -45 -54 -41 -82 -50 -102 -34 -21 17 -52 19 -58 2
-3 -7 0 -13 7 -13 7 0 4 -5 -7 -11 -10 -6 -35 -9 -55 -6 -20 3 -30 3 -23 0 19
-7 14 -21 -10 -29 l-23 -7 23 -8 c24 -9 30 -29 8 -29 -8 0 -16 -7 -20 -15 -3
-8 -13 -15 -22 -15 -10 0 -14 5 -10 15 3 9 0 15 -9 15 -20 0 -19 39 0 46 23 9
18 22 -9 22 -22 0 -25 -5 -28 -42 -3 -38 -5 -41 -30 -39 -17 1 -41 18 -70 49
-23 25 -52 50 -64 55 -13 4 -25 20 -29 37 -5 23 -10 29 -25 25 -16 -4 -18 -1
-14 21 2 14 0 26 -6 26 -5 0 -10 -7 -10 -15 0 -8 -4 -15 -10 -15 -10 0 -15 39
-12 88 0 13 -5 22 -13 22 -25 0 -27 20 -3 29 22 9 22 10 -9 16 -34 8 -42 20
-20 28 7 3 4 6 -7 6 -12 1 -16 6 -13 16 4 8 1 17 -5 21 -7 4 -6 9 2 14 9 6 6
10 -9 15 -16 5 -20 12 -15 27 5 17 3 18 -15 9 -12 -7 -21 -16 -21 -21 0 -6 -7
-10 -15 -10 -22 0 -18 11 15 47 36 38 36 40 8 39 -28 -1 -37 30 -11 37 16 4
16 6 -4 12 -20 7 -40 55 -22 55 5 0 9 5 9 11 0 6 -7 9 -15 5 -8 -3 -15 -1 -15
4 0 6 6 10 13 10 9 0 9 2 -1 9 -11 7 -11 15 2 45 8 20 13 43 10 51 -4 11 1 15
17 15 13 0 52 1 85 2 46 2 67 -1 80 -13 11 -9 26 -14 34 -11 13 4 13 3 1 -11
-9 -12 -10 -17 -2 -17 6 0 15 8 18 18 22 59 63 83 63 36z m815 6 c3 -5 -1 -10
-9 -10 -8 0 -18 5 -21 10 -3 6 1 10 9 10 8 0 18 -4 21 -10z m324 6 c-12 -10
-59 -15 -59 -6 0 5 14 10 32 10 17 0 29 -2 27 -4z m186 -28 c55 -21 66 -36 45
-68 -9 -13 -10 -13 -10 1 0 34 -76 79 -133 79 -18 0 -39 5 -47 11 -25 18 83 1
145 -23z m-803 11 c50 -7 85 -16 82 -21 -8 -12 -115 0 -163 18 -46 16 -29 17
81 3z m-2672 -8 c0 -12 -20 -25 -27 -18 -7 7 6 27 18 27 5 0 9 -4 9 -9z m-80
-16 c0 -8 -7 -15 -15 -15 -8 0 -15 7 -15 15 0 8 7 15 15 15 8 0 15 -7 15 -15z
m2903 8 c-7 -2 -19 -2 -25 0 -7 3 -2 5 12 5 14 0 19 -2 13 -5z m1212 -30 c40
-20 103 -81 122 -118 l15 -30 -33 31 c-59 53 -210 140 -223 127 -3 -4 -6 -1
-6 6 0 16 82 5 125 -16z m460 -43 c3 -6 -1 -7 -9 -4 -18 7 -21 14 -7 14 6 0
13 -4 16 -10z m-715 -40 c0 -5 -7 -7 -15 -4 -8 4 -15 8 -15 10 0 2 7 4 15 4 8
0 15 -4 15 -10z m227 -59 c0 -11 -5 -17 -9 -15 -4 3 -8 0 -8 -7 0 -7 -3 -10
-6 -7 -5 6 13 48 21 48 2 0 3 -9 2 -19z m-967 -19 c0 -15 -2 -15 -10 -2 -13
20 -13 33 0 25 6 -3 10 -14 10 -23z m-2870 -28 c0 -21 -4 -34 -11 -32 -6 2
-10 7 -10 11 1 4 1 18 1 32 0 14 5 25 10 25 6 0 10 -16 10 -36z m3715 26 c3
-5 -1 -10 -9 -10 -8 0 -18 5 -21 10 -3 6 1 10 9 10 8 0 18 -4 21 -10z m80 -11
c10 -15 -1 -23 -20 -15 -9 3 -13 10 -10 16 8 13 22 13 30 -1z m-3364 -313 c5
3 9 -6 9 -20 0 -19 -5 -26 -20 -26 -22 0 -23 3 -13 40 4 13 8 19 11 12 2 -7 8
-10 13 -6z m1207 -135 c3 -8 -1 -12 -9 -9 -7 2 -15 10 -17 17 -3 8 1 12 9 9 7
-2 15 -10 17 -17z m79 -51 c2 -32 -11 -41 -21 -14 -10 25 -7 44 7 44 6 0 13
-14 14 -30z m1972 -44 c14 -16 22 -27 16 -24 -44 18 -64 34 -68 54 -5 30 4 40
16 17 5 -10 21 -31 36 -47z m-1950 -23 c-1 -17 -3 -21 -6 -10 -2 9 -12 17 -21
18 -14 0 -13 2 3 9 11 5 21 9 23 9 1 1 1 -11 1 -26z m-1 -74 c-17 -10 -28 -2
-21 17 4 11 8 12 20 3 11 -10 11 -14 1 -20z m112 -54 c-9 -10 -9 -15 -1 -15 6
0 11 -4 11 -10 0 -5 -7 -10 -15 -10 -8 0 -15 4 -15 9 0 18 12 41 22 41 6 0 5
-6 -2 -15z m50 -15 c0 -5 -2 -10 -4 -10 -3 0 -8 5 -11 10 -3 6 -1 10 4 10 6 0
11 -4 11 -10z m40 -30 c0 -5 -2 -10 -4 -10 -3 0 -8 5 -11 10 -3 6 -1 10 4 10
6 0 11 -4 11 -10z m-1610 -25 c0 -8 -4 -15 -10 -15 -5 0 -10 7 -10 15 0 8 5
15 10 15 6 0 10 -7 10 -15z m140 -5 c0 -5 -4 -10 -10 -10 -5 0 -10 5 -10 10 0
6 5 10 10 10 6 0 10 -4 10 -10z m1401 -20 c1 -5 2 -16 3 -22 1 -14 46 -20 46
-7 0 5 5 9 10 9 6 0 9 -3 9 -7 -3 -19 3 -47 8 -35 2 6 9 12 14 12 14 0 11 -27
-3 -34 -7 -3 -3 -3 10 0 17 4 22 1 22 -13 0 -12 -8 -19 -22 -20 -11 -1 -25 -8
-29 -15 -9 -14 -1 -68 12 -82 11 -12 12 -26 1 -26 -9 0 -37 67 -37 88 0 7 -6
16 -13 21 -7 4 -10 15 -6 24 3 10 1 17 -5 17 -6 0 -11 6 -11 14 0 8 -7 16 -15
20 -17 6 -21 66 -5 66 6 0 11 -4 11 -10z m-44 -25 c6 -14 8 -25 4 -25 -4 0
-13 11 -19 25 -6 14 -8 25 -4 25 4 0 12 -11 19 -25z m83 15 c0 -5 -4 -10 -10
-10 -5 0 -10 5 -10 10 0 6 5 10 10 10 6 0 10 -4 10 -10z m60 0 c0 -5 -4 -10
-10 -10 -5 0 -10 5 -10 10 0 6 5 10 10 10 6 0 10 -4 10 -10z m200 -10 c0 -11
-4 -20 -10 -20 -5 0 -10 9 -10 20 0 11 5 20 10 20 6 0 10 -9 10 -20z m-370
-30 c0 -5 -4 -10 -10 -10 -5 0 -10 5 -10 10 0 6 5 10 10 10 6 0 10 -4 10 -10z
m210 0 c0 -5 -5 -10 -11 -10 -5 0 -7 5 -4 10 3 6 8 10 11 10 2 0 4 -4 4 -10z
m-145 -30 c3 -5 -3 -10 -14 -10 -10 0 -21 -5 -23 -10 -2 -6 -9 -1 -16 10 -11
18 -10 20 17 20 17 0 33 -4 36 -10z m165 -15 c0 -8 -2 -15 -4 -15 -2 0 -6 7
-10 15 -3 8 -1 15 4 15 6 0 10 -7 10 -15z m-170 -40 c0 -8 5 -15 12 -15 6 0 8
-3 5 -6 -8 -8 -37 14 -37 27 0 5 5 9 10 9 6 0 10 -7 10 -15z m115 -24 c-3 -6
-11 -11 -16 -11 -5 0 -4 6 3 14 14 16 24 13 13 -3z m-1328 -58 c-3 -10 -5 -4
-5 12 0 17 2 24 5 18 2 -7 2 -21 0 -30z m1343 21 c0 -8 -5 -12 -10 -9 -6 4 -8
11 -5 16 9 14 15 11 15 -7z m-801 -253 c-1 -17 -3 -20 -6 -8 -2 9 -9 15 -14
12 -5 -4 -9 0 -9 8 0 7 7 14 15 14 10 0 15 -9 14 -26z m-2 -58 c2 -6 -3 -13
-12 -16 -10 -5 -15 0 -15 14 0 21 21 22 27 2z m-597 -122 c0 -6 -4 -13 -10
-16 -5 -3 -10 1 -10 9 0 9 5 16 10 16 6 0 10 -4 10 -9z m2095 -171 c3 -5 2
-10 -4 -10 -5 0 -13 5 -16 10 -3 6 -2 10 4 10 5 0 13 -4 16 -10z m-644 -23
c-1 -12 -15 -9 -19 4 -3 6 1 10 8 8 6 -3 11 -8 11 -12z m-2481 -67 c0 -5 -4
-10 -10 -10 -5 0 -10 5 -10 10 0 6 5 10 10 10 6 0 10 -4 10 -10z m965 1 c3 -5
1 -12 -5 -16 -5 -3 -10 1 -10 9 0 18 6 21 15 7z m-905 -8 c0 -5 -5 -15 -10
-23 -8 -12 -10 -11 -10 8 0 12 5 22 10 22 6 0 10 -3 10 -7z m155 -3 c3 -5 1
-10 -4 -10 -6 0 -11 5 -11 10 0 6 2 10 4 10 3 0 8 -4 11 -10z m925 0 c0 -5 -5
-10 -11 -10 -5 0 -7 5 -4 10 3 6 8 10 11 10 2 0 4 -4 4 -10z m1570 -310 c0 -5
-2 -10 -4 -10 -3 0 -8 5 -11 10 -3 6 -1 10 4 10 6 0 11 -4 11 -10z m285 -110
c3 -5 1 -10 -4 -10 -6 0 -11 5 -11 10 0 6 2 10 4 10 3 0 8 -4 11 -10z m345
-84 c0 -11 -19 -15 -25 -6 -3 5 1 10 9 10 9 0 16 -2 16 -4z m-348 -853 c10 -9
18 -26 17 -37 0 -20 -1 -20 -11 2 -11 23 -32 29 -42 13 -10 -16 5 -41 24 -41
20 0 36 -33 25 -50 -3 -5 3 -10 14 -10 25 0 28 -17 4 -22 -16 -3 -15 -6 5 -26
32 -32 28 -44 -15 -40 -34 3 -38 6 -38 31 1 15 -3 27 -8 27 -5 0 -7 7 -4 15 4
8 2 17 -2 20 -11 6 -24 111 -16 125 9 15 26 12 47 -7z m72 -266 c6 -9 7 -20 3
-24 -5 -4 -12 -1 -16 6 -7 11 -9 11 -13 0 -3 -8 2 -20 9 -28 9 -8 12 -23 9
-37 -4 -14 -2 -24 4 -24 5 0 10 -13 10 -30 0 -26 -4 -30 -26 -30 -14 0 -23 4
-19 10 3 6 13 10 21 10 8 0 12 5 9 10 -4 6 -16 8 -27 4 -17 -5 -20 -3 -14 11
4 12 -2 25 -19 41 -31 28 -31 34 -3 34 21 0 21 1 3 20 -14 16 -16 23 -7 32 9
9 12 7 13 -7 0 -19 1 -18 16 3 17 25 31 25 47 -1z m-768 -102 c8 -19 -19 -46
-35 -35 -10 6 -10 12 0 29 16 25 27 27 35 6z m788 -91 c4 -9 2 -22 -4 -29 -8
-9 -6 -14 5 -19 8 -3 15 -15 15 -26 0 -15 -7 -20 -24 -20 -14 0 -28 -5 -31
-10 -10 -16 -35 8 -35 31 0 14 8 19 28 20 16 1 20 3 10 6 -25 6 -22 19 5 28
21 8 21 8 -6 12 -15 2 -25 9 -22 14 10 15 52 10 59 -7z m-707 -26 c17 -34 18
-66 2 -82 -5 -6 -9 5 -9 28 0 29 -4 39 -20 43 -30 8 -26 30 7 42 1 1 10 -14
20 -31z m-247 -9 c0 -6 7 -9 15 -6 18 7 43 -28 74 -103 30 -72 53 -122 151
-324 50 -103 83 -185 85 -208 1 -22 5 -42 9 -45 10 -10 7 -25 -4 -18 -5 3 -10
-1 -10 -10 0 -9 4 -14 9 -10 11 6 31 -56 31 -97 0 -15 -4 -29 -8 -32 -5 -3 -6
8 -4 25 5 36 -2 37 -32 2 -21 -25 -22 -29 -8 -39 14 -10 14 -13 -1 -28 -16
-16 -17 -16 -17 4 0 11 -11 31 -25 44 -18 17 -22 25 -13 34 9 9 9 12 -1 12 -8
0 -11 6 -7 15 3 9 0 15 -9 15 -7 0 -16 -8 -18 -17 -2 -10 -3 -5 -1 10 2 15 0
26 -5 23 -10 -6 -25 43 -16 52 3 3 5 -2 5 -11 0 -29 34 -15 36 15 1 11 -4 14
-14 11 -8 -4 -13 -2 -9 3 3 5 -3 10 -14 10 -10 0 -19 -3 -20 -6 0 -3 -2 -15
-3 -27 -2 -13 -6 -26 -11 -30 -4 -5 -4 2 -1 15 4 12 3 22 -2 22 -10 0 -26 58
-75 265 -8 33 -21 85 -30 115 -8 30 -27 109 -42 175 -14 66 -29 128 -31 138
-3 9 -1 17 5 17 6 0 11 -5 11 -11z m186 3 c19 -12 36 -54 27 -63 -15 -15 -63
13 -63 37 0 31 14 41 36 26z m-33 -93 c-3 -12 -9 -17 -15 -11 -10 10 0 44 12
37 5 -3 6 -14 3 -26z m137 6 c0 -8 -7 -15 -15 -15 -8 0 -15 7 -15 15 0 8 7 15
15 15 8 0 15 -7 15 -15z m-75 -15 c4 -6 1 -18 -6 -26 -10 -13 -10 -17 2 -25
10 -6 19 -2 31 14 l18 22 0 -29 c0 -16 7 -38 17 -48 11 -12 12 -18 3 -18 -8 0
-11 -9 -8 -25 6 -30 3 -31 -19 -7 -23 24 -27 43 -8 36 17 -7 18 -3 9 20 -9 24
-32 19 -47 -10 -10 -19 -16 -23 -22 -14 -4 7 -2 16 5 20 17 11 3 53 -16 46 -8
-3 -14 -1 -14 4 0 6 4 10 9 10 5 0 11 9 14 20 6 22 22 26 32 10z m785 -10 c0
-5 -4 -10 -10 -10 -5 0 -10 -7 -10 -15 0 -8 7 -15 15 -15 8 0 15 -4 15 -10 0
-5 -12 -10 -26 -10 -16 0 -24 -5 -21 -12 2 -7 12 -12 21 -10 12 2 17 -2 14
-15 -2 -11 -14 -19 -29 -21 -23 -3 -27 1 -32 30 -3 22 0 37 9 44 20 16 17 24
-6 24 -22 0 -27 15 -7 23 22 9 67 7 67 -3z m430 -46 c0 -13 10 -51 21 -85 17
-49 20 -73 15 -121 -7 -58 2 -203 12 -194 2 3 4 32 3 65 -1 48 2 59 13 55 8
-3 16 3 19 15 6 25 -12 40 -24 20 -5 -9 -7 -3 -7 17 1 30 2 31 30 20 17 -6 27
-17 25 -26 -1 -8 4 -20 13 -27 10 -8 11 -12 3 -13 -12 0 -11 -18 3 -89 4 -18
8 -21 14 -12 6 10 9 9 14 -7 4 -11 17 -22 29 -26 17 -4 19 -8 9 -18 -17 -17
-15 -23 13 -36 28 -13 32 -36 10 -58 -10 -10 -12 -22 -6 -37 11 -28 2 -239
-10 -252 -12 -12 -11 -25 1 -25 26 0 74 310 76 505 1 83 3 174 3 203 1 28 5
52 10 52 4 0 19 -36 31 -81 23 -79 23 -83 11 -272 -10 -151 -19 -217 -42 -307
-16 -63 -38 -149 -49 -190 -10 -41 -33 -124 -51 -185 -17 -60 -37 -129 -43
-152 -6 -24 -13 -43 -16 -43 -3 0 -11 34 -18 76 -11 72 -11 78 9 106 13 18 19
39 17 53 -3 14 -1 22 3 19 5 -3 9 2 9 10 0 8 -5 18 -11 21 -6 4 -7 14 -3 24 9
21 23 93 17 87 -13 -13 -30 20 -22 41 6 17 5 23 -6 23 -8 0 -22 11 -31 25 -17
26 -40 35 -31 11 3 -7 8 -35 12 -62 5 -42 2 -37 -24 39 -16 48 -36 103 -45
122 -9 18 -16 37 -16 41 0 5 -25 68 -56 141 -36 85 -54 139 -49 150 4 10 9
103 11 207 3 105 9 195 15 202 7 9 20 9 49 2 33 -9 40 -15 40 -34z m-420 -99
c0 -8 7 -15 15 -15 8 0 15 -4 15 -10 0 -5 -4 -10 -9 -10 -15 0 -20 -41 -8 -61
9 -15 9 -24 -1 -39 -9 -15 -9 -19 0 -18 6 2 13 -4 15 -13 3 -12 -3 -15 -27
-11 -21 3 -29 9 -26 18 3 7 1 16 -5 20 -6 3 -9 16 -8 27 2 12 -2 31 -8 42 -12
24 -7 45 13 45 8 0 14 5 14 10 0 6 -9 10 -20 10 -11 0 -20 5 -20 10 0 6 14 10
30 10 20 0 30 -5 30 -15z m-333 -37 c-3 -8 -6 -5 -6 6 -1 11 2 17 5 13 3 -3 4
-12 1 -19z m1009 -3 c-4 -24 -13 -27 -19 -5 -3 13 0 20 8 20 7 0 12 -7 11 -15z
m-1402 -35 c-6 -5 -24 21 -24 34 0 6 6 1 14 -10 8 -10 12 -21 10 -24z m1226
10 c0 -5 7 -10 15 -10 8 0 15 -4 15 -10 0 -5 -4 -10 -10 -10 -5 0 -13 0 -17
-1 -4 0 -10 9 -15 20 -4 12 -3 21 2 21 6 0 10 -4 10 -10z m184 -109 c-2 -2 -4
4 -4 15 -1 18 -1 18 -17 -1 -12 -15 -14 -16 -10 -3 3 9 9 34 13 55 l8 38 7
-50 c5 -27 6 -51 3 -54z m-619 -51 c-3 -5 -17 -10 -30 -10 -13 0 -27 -5 -31
-11 -8 -13 16 -31 33 -25 21 8 22 -23 1 -38 -20 -15 -20 -15 15 -9 24 4 37 2
37 -6 0 -6 -4 -11 -9 -11 -14 0 -21 -41 -9 -60 16 -25 3 -52 -24 -48 -17 2
-23 10 -24 28 -1 14 -4 32 -6 40 -3 8 -11 33 -16 55 -6 22 -14 51 -18 64 -4
15 -1 27 7 32 20 12 82 11 74 -1z m-173 -35 c3 -14 1 -28 -3 -31 -5 -3 -9 9
-9 25 0 38 6 40 12 6z m798 -29 c0 -6 -4 -5 -9 3 -7 11 -9 11 -14 0 -3 -8 -6
-3 -6 10 -1 20 1 21 14 11 8 -7 15 -18 15 -24z m-63 8 c-3 -3 -12 -4 -19 -1
-8 3 -5 6 6 6 11 1 17 -2 13 -5z m-534 -201 c8 -44 3 -53 -29 -53 -17 0 -24 6
-24 18 0 26 11 34 27 21 10 -9 13 -8 13 5 0 15 -11 20 -37 17 -23 -3 -14 17
10 22 12 2 25 5 28 6 4 0 9 -15 12 -36z m-918 -13 c-6 -9 18 -95 37 -133 5
-10 6 -22 3 -27 -3 -5 -1 -11 5 -15 5 -3 10 -11 10 -18 0 -33 -29 28 -48 101
-20 75 -21 102 -6 102 3 0 2 -4 -1 -10z m936 -55 c0 -13 -61 -26 -61 -13 0 9
40 28 53 25 5 -2 8 -7 8 -12z m3 -40 c8 -23 -4 -45 -25 -45 -24 0 -42 33 -27
48 17 17 45 15 52 -3z m-792 -70 c0 -5 -5 -11 -11 -13 -6 -2 -11 4 -11 13 0 9
5 15 11 13 6 -2 11 -8 11 -13z m805 -1 c3 -9 1 -25 -6 -35 -9 -16 -8 -19 5
-19 8 0 13 -4 10 -9 -7 -11 -86 8 -86 21 0 5 6 8 13 5 15 -5 47 10 47 23 0 6
-9 10 -20 10 -11 0 -20 5 -20 10 0 17 50 11 57 -6z m-890 -86 c-3 -8 -6 -5 -6
6 -1 11 2 17 5 13 3 -3 4 -12 1 -19z m1310 -80 c-3 -8 -6 -5 -6 6 -1 11 2 17
5 13 3 -3 4 -12 1 -19z m-32 -8 c3 -5 2 -10 -4 -10 -5 0 -13 5 -16 10 -3 6 -2
10 4 10 5 0 13 -4 16 -10z m39 -25 c3 -8 1 -15 -4 -15 -6 0 -10 7 -10 15 0 8
2 15 4 15 2 0 6 -7 10 -15z m-47 -17 c-3 -8 -6 -5 -6 6 -1 11 2 17 5 13 3 -3
4 -12 1 -19z m14 -45 c7 -44 5 -104 -3 -109 -7 -5 -9 9 -6 44 3 29 0 56 -6 62
-7 7 -6 10 2 10 7 0 13 -3 13 -7z m126 -65 c-3 -8 -6 -5 -6 6 -1 11 2 17 5 13
3 -3 4 -12 1 -19z m-897 -378 c0 -5 -5 -10 -11 -10 -5 0 -7 5 -4 10 3 6 8 10
11 10 2 0 4 -4 4 -10z m450 0 c0 -5 -4 -10 -9 -10 -6 0 -13 5 -16 10 -3 6 1
10 9 10 9 0 16 -4 16 -10z m-453 -52 c-3 -8 -6 -5 -6 6 -1 11 2 17 5 13 3 -3
4 -12 1 -19z"/>
<path d="M2510 5023 c0 -6 8 -17 18 -24 16 -13 16 -13 2 6 -8 11 -16 22 -17
24 -2 2 -3 0 -3 -6z"/>
<path d="M2476 4965 c11 -27 70 -85 87 -85 10 0 17 8 17 20 0 11 -4 20 -9 20
-4 0 -25 14 -46 30 -41 33 -57 38 -49 15z"/>
<path d="M2590 4853 c0 -6 5 -15 10 -18 8 -5 7 -12 -2 -23 -11 -13 -11 -14 1
-11 21 7 23 22 6 44 -8 11 -15 15 -15 8z"/>
<path d="M3745 5251 c-20 -4 -26 -9 -18 -14 24 -15 51 -16 57 -2 7 19 -3 23
-39 16z"/>
<path d="M3265 5120 c-3 -5 1 -10 10 -10 9 0 13 5 10 10 -3 6 -8 10 -10 10 -2
0 -7 -4 -10 -10z"/>
<path d="M3130 4780 c0 -5 5 -10 10 -10 6 0 10 5 10 10 0 6 -4 10 -10 10 -5 0
-10 -4 -10 -10z"/>
<path d="M3110 4747 c0 -8 9 -17 20 -20 11 -3 20 -1 20 4 0 4 -9 13 -20 19
-16 8 -20 8 -20 -3z"/>
<path d="M2960 4415 c0 -8 5 -15 10 -15 6 0 10 7 10 15 0 8 -4 15 -10 15 -5 0
-10 -7 -10 -15z"/>
<path d="M3590 2130 c0 -5 5 -10 10 -10 6 0 10 5 10 10 0 6 -4 10 -10 10 -5 0
-10 -4 -10 -10z"/>
<path d="M3610 2040 c0 -5 5 -10 10 -10 6 0 10 5 10 10 0 6 -4 10 -10 10 -5 0
-10 -4 -10 -10z"/>
<path d="M3645 1880 c3 -5 8 -10 11 -10 2 0 4 5 4 10 0 6 -5 10 -11 10 -5 0
-7 -4 -4 -10z"/>
<path d="M2836 1357 c3 -10 9 -15 12 -12 3 3 0 11 -7 18 -10 9 -11 8 -5 -6z"/>
<path d="M2860 1301 c0 -5 5 -13 10 -16 6 -3 10 -2 10 4 0 5 -4 13 -10 16 -5
3 -10 2 -10 -4z"/>
<path d="M2937 1233 c-4 -3 -7 -13 -7 -22 1 -13 3 -13 11 2 11 19 8 33 -4 20z"/>
<path d="M2890 1221 c0 -5 5 -13 10 -16 6 -3 10 -2 10 4 0 5 -4 13 -10 16 -5
3 -10 2 -10 -4z"/>
<path d="M2885 1180 c-3 -5 -1 -10 5 -10 7 0 10 -6 7 -14 -3 -8 -3 -17 1 -21
3 -3 7 -14 7 -23 1 -9 3 -30 4 -47 l3 -30 13 30 c11 24 14 26 15 10 1 -11 4
-15 6 -8 7 16 -15 93 -26 93 -5 0 -7 7 -4 15 7 17 -21 21 -31 5z"/>
<path d="M2940 1170 c0 -5 5 -10 10 -10 6 0 10 5 10 10 0 6 -4 10 -10 10 -5 0
-10 -4 -10 -10z"/>
<path d="M4231 1144 c0 -11 3 -14 6 -6 3 7 2 16 -1 19 -3 4 -6 -2 -5 -13z"/>
<path d="M4320 1150 c0 -5 7 -10 16 -10 8 0 12 5 9 10 -3 6 -10 10 -16 10 -5
0 -9 -4 -9 -10z"/>
<path d="M4222 1080 c0 -14 2 -19 5 -12 2 6 2 18 0 25 -3 6 -5 1 -5 -13z"/>
<path d="M4370 1080 c0 -5 5 -10 10 -10 6 0 10 5 10 10 0 6 -4 10 -10 10 -5 0
-10 -4 -10 -10z"/>
<path d="M4217 1023 c-4 -3 -7 -16 -6 -27 0 -19 1 -19 10 3 10 24 8 36 -4 24z"/>
<path d="M4211 948 c0 -9 -4 -25 -7 -35 -5 -17 -5 -17 6 0 6 10 9 25 7 35 -4
15 -5 15 -6 0z"/>
<path d="M4205 880 c-3 -5 -1 -10 4 -10 6 0 11 5 11 10 0 6 -2 10 -4 10 -3 0
-8 -4 -11 -10z"/>
<path d="M4260 830 c0 -5 5 -10 10 -10 6 0 10 5 10 10 0 6 -4 10 -10 10 -5 0
-10 -4 -10 -10z"/>
<path d="M4235 800 c3 -5 13 -10 21 -10 8 0 12 5 9 10 -3 6 -13 10 -21 10 -8
0 -12 -4 -9 -10z"/>
<path d="M4346 725 c-3 -8 -1 -15 4 -15 6 0 10 7 10 15 0 8 -2 15 -4 15 -2 0
-6 -7 -10 -15z"/>
<path d="M4344 687 c3 -10 6 -21 6 -23 0 -13 19 -1 23 16 3 11 1 20 -4 20 -5
0 -9 -6 -9 -12 0 -9 -4 -8 -11 2 -9 12 -10 12 -5 -3z"/>
<path d="M3725 1420 c3 -5 10 -10 16 -10 5 0 9 5 9 10 0 6 -7 10 -16 10 -8 0
-12 -4 -9 -10z"/>
<path d="M3735 1360 c-3 -5 1 -10 9 -10 8 0 18 5 21 10 3 6 -1 10 -9 10 -8 0
-18 -4 -21 -10z"/>
<path d="M3785 1120 c4 -6 11 -8 16 -5 14 9 11 15 -7 15 -8 0 -12 -5 -9 -10z"/>
<path d="M3790 1060 c0 -5 6 -10 14 -10 8 0 18 5 21 10 3 6 -3 10 -14 10 -12
0 -21 -4 -21 -10z"/>
<path d="M3830 870 c0 -5 7 -10 15 -10 8 0 15 5 15 10 0 6 -7 10 -15 10 -8 0
-15 -4 -15 -10z"/>
<path d="M4920 7291 c0 -5 14 -19 30 -31 17 -12 30 -18 29 -13 0 12 -59 56
-59 44z"/>
<path d="M6213 6664 c-2 -6 -39 -191 -82 -411 l-77 -400 105 -7 c57 -3 195 -6
305 -6 l201 0 13 65 c6 35 12 68 12 73 0 4 -96 9 -212 11 -117 1 -216 5 -220
9 -4 4 -1 34 7 67 7 33 16 77 20 98 l6 38 202 -1 202 -2 14 62 c7 34 11 63 10
65 -2 2 -91 5 -198 7 -117 2 -195 7 -197 13 -2 6 5 48 14 93 l17 84 220 1 219
2 13 60 c7 33 12 65 13 72 0 17 -600 24 -607 7z"/>
<path d="M7175 6667 c-80 -21 -126 -47 -186 -107 -94 -93 -142 -222 -141 -381
2 -209 100 -332 289 -359 102 -14 205 17 233 71 17 31 30 22 30 -21 l0 -40 50
0 c31 0 52 5 55 13 3 6 25 105 48 220 l43 207 -158 0 c-87 0 -161 0 -165 0 -6
1 -31 -86 -33 -112 0 -5 38 -8 85 -8 99 0 107 -7 76 -68 -44 -87 -104 -122
-206 -122 -58 0 -100 22 -138 72 -97 127 -21 412 128 479 48 22 133 24 180 5
37 -16 75 -68 75 -103 0 -22 3 -23 86 -23 l87 0 -6 51 c-16 136 -131 224 -306
234 -45 3 -96 -1 -126 -8z"/>
<path d="M7732 6247 c-45 -221 -82 -405 -82 -409 0 -5 79 -8 175 -8 l175 0 0
70 0 70 -75 0 c-87 0 -84 -5 -60 112 25 118 20 111 81 105 l54 -6 0 70 0 69
-40 0 c-46 0 -46 -2 -22 110 15 64 20 75 40 78 20 3 22 8 22 73 l0 69 -92 0
-93 0 -83 -403z"/>
<path d="M4510 5248 c0 -8 7 -21 15 -28 19 -16 19 -1 0 24 -12 16 -15 17 -15
4z"/>
<path d="M3605 4670 c-4 -12 -5 -24 -2 -27 3 -2 8 5 12 17 4 12 5 24 2 27 -3
2 -8 -5 -12 -17z"/>
<path d="M7484 4523 c4 -5 62 -9 129 -9 67 -1 166 -2 220 -3 l97 -1 -2 -222
-3 -223 -132 -3 c-83 -2 -133 -6 -133 -13 0 -11 251 -11 268 0 6 3 11 111 13
241 l4 235 -234 3 c-129 1 -231 -1 -227 -5z"/>
<path d="M7415 4483 c-12 -28 -13 -38 -4 -44 7 -4 17 -22 23 -41 9 -25 17 -34
39 -36 15 -2 27 0 27 4 0 16 -56 154 -62 154 -4 0 -15 -17 -23 -37z m29 -18
c3 -8 1 -15 -4 -15 -6 0 -10 7 -10 15 0 8 2 15 4 15 2 0 6 -7 10 -15z"/>
<path d="M5030 4456 c0 -28 13 -76 20 -76 13 0 20 29 13 60 -5 30 -33 43 -33
16z"/>
<path d="M7560 4419 c0 -17 13 -39 20 -34 4 3 12 -8 18 -23 6 -15 26 -66 44
-114 18 -48 36 -88 39 -88 5 0 39 65 39 75 0 3 -6 5 -12 5 -7 0 -28 40 -46 89
-32 86 -35 89 -68 93 -19 2 -34 1 -34 -3z"/>
<path d="M7797 4417 c-8 -7 -17 -21 -21 -31 -5 -16 -4 -17 9 -6 13 11 15 1 15
-89 0 -56 -5 -111 -10 -122 -10 -17 -7 -19 27 -19 l38 0 0 135 c0 74 -2 135
-5 136 -3 0 -13 2 -22 4 -9 2 -23 -2 -31 -8z"/>
<path d="M7351 4323 c-13 -32 -30 -68 -38 -80 -13 -22 -12 -23 19 -22 18 0 27
3 21 6 -17 6 -16 41 1 74 13 26 29 79 23 79 -2 0 -14 -26 -26 -57z"/>
<path d="M7737 4298 c-9 -23 -15 -43 -13 -45 2 -2 11 15 20 38 9 23 15 43 13
45 -2 2 -11 -15 -20 -38z"/>
<path d="M2708 4318 c7 -7 12 -20 12 -30 0 -10 5 -18 10 -18 15 0 12 27 -6 44
-8 9 -18 16 -22 16 -3 0 -1 -5 6 -12z"/>
<path d="M7425 4187 l0 -134 37 -1 c35 -2 37 0 29 21 -5 12 -8 73 -7 135 l1
112 -30 0 -30 0 0 -133z"/>
<path d="M7560 4261 c0 -11 -9 -26 -20 -34 -18 -12 -19 -15 -5 -21 8 -3 20
-16 25 -28 7 -18 9 -9 9 40 1 34 -1 62 -4 62 -3 0 -5 -9 -5 -19z"/>
<path d="M4036 4193 c-3 -4 -107 -13 -151 -14 -11 0 -22 -5 -26 -11 -4 -6 -14
-8 -25 -3 -29 12 -54 13 -61 2 -3 -5 -9 -3 -14 4 -4 7 -11 10 -15 7 -11 -11
17 -68 33 -68 7 0 16 -7 19 -15 6 -14 48 -37 127 -69 43 -17 201 -36 356 -41
91 -4 107 -2 132 15 15 11 32 20 37 20 6 0 -14 25 -44 55 -30 30 -51 55 -47
55 12 1 -30 24 -47 26 -8 1 -30 5 -49 9 -25 6 -32 5 -27 -3 5 -8 2 -10 -8 -6
-9 3 -14 10 -11 15 8 12 -167 33 -179 22z"/>
<path d="M7603 4084 l-31 -35 26 3 c21 2 28 10 33 36 4 17 6 32 5 31 0 0 -15
-16 -33 -35z"/>
<path d="M5128 3895 c-5 -23 -2 -25 27 -25 21 0 35 6 39 16 11 28 6 34 -28 34
-28 0 -34 -4 -38 -25z"/>
<path d="M4936 3829 c-20 -29 -24 -44 -17 -53 7 -9 7 -31 -1 -73 -16 -86 -11
-93 61 -93 51 0 62 3 75 22 22 30 20 55 -4 61 -13 3 -24 -3 -35 -19 -26 -41
-38 -30 -31 28 9 63 20 79 55 76 31 -2 51 8 51 27 0 17 -20 24 -55 18 -26 -6
-27 -4 -21 21 6 24 4 26 -22 26 -23 0 -35 -9 -56 -41z"/>
<path d="M5114 3815 c-5 -17 -34 -176 -34 -191 0 -9 11 -14 30 -14 17 0 30 2
30 4 0 2 9 48 20 101 11 54 18 100 15 103 -10 10 -57 8 -61 -3z"/>
<path d="M5253 3822 c-13 -2 -31 -15 -42 -28 -23 -29 -45 -125 -36 -154 14
-43 141 -48 183 -6 32 31 53 149 31 171 -15 15 -92 24 -136 17z m61 -48 c19
-7 20 -38 5 -82 -11 -33 -32 -46 -60 -37 -21 7 -23 25 -9 74 13 45 31 58 64
45z"/>
<path d="M5435 3808 c-3 -10 -31 -150 -39 -192 0 -4 14 -9 31 -10 32 -1 33 1
44 54 18 94 21 100 39 110 24 13 50 3 50 -19 -1 -9 -7 -44 -14 -78 l-13 -61
33 -4 c32 -4 34 -3 43 42 20 95 23 121 17 145 -6 22 -12 25 -48 25 -25 0 -49
-7 -60 -17 -17 -15 -18 -15 -18 0 0 20 -58 24 -65 5z"/>
<path d="M4840 3718 c-19 -22 -39 -47 -43 -54 -4 -8 -17 -14 -27 -14 -10 0
-22 -5 -25 -10 -4 -6 -10 -8 -14 -6 -4 3 -8 -1 -8 -9 0 -18 38 -20 55 -3 9 9
12 9 12 0 0 -7 14 -12 34 -12 33 0 34 1 45 61 7 34 15 67 18 75 10 26 -12 13
-47 -28z"/>
<path d="M6204 3703 c-13 -32 -25 -61 -42 -96 -2 -4 3 -4 12 -1 9 3 16 15 16
25 0 10 4 19 9 19 5 0 8 7 7 16 0 9 5 19 13 22 10 3 12 -1 8 -17 -3 -11 -1
-21 4 -21 5 0 9 -11 9 -24 0 -18 5 -23 18 -21 9 2 20 4 24 4 3 1 -2 18 -12 39
-10 21 -22 50 -25 65 -10 37 -23 34 -41 -10z"/>
<path d="M6315 3675 c0 -58 2 -65 20 -65 18 0 20 7 20 65 0 58 -2 65 -20 65
-18 0 -20 -7 -20 -65z"/>
<path d="M6435 3675 c0 -58 2 -65 20 -65 18 0 20 7 20 65 0 58 -2 65 -20 65
-18 0 -20 -7 -20 -65z"/>
<path d="M6491 3737 c2 -1 12 -9 22 -16 14 -12 17 -11 17 3 0 10 -8 16 -22 16
-12 0 -19 -1 -17 -3z"/>
<path d="M6555 3676 c0 -59 2 -65 22 -69 19 -4 21 -1 16 24 -7 36 9 38 27 4 8
-16 22 -25 37 -25 l23 0 -20 20 c-23 23 -24 33 -8 59 13 22 -3 51 -28 51 -16
0 -19 -16 -4 -25 7 -4 7 -13 0 -26 -15 -27 -33 -13 -28 22 4 24 1 29 -16 29
-19 0 -21 -6 -21 -64z"/>
<path d="M6700 3675 c0 -57 2 -65 19 -65 17 0 18 6 15 55 -4 60 11 80 41 55
12 -10 15 -9 15 4 0 12 -10 16 -45 16 l-45 0 0 -65z"/>
<path d="M6828 3671 c3 -58 6 -68 20 -64 14 3 17 17 17 69 0 57 -2 64 -20 64
-18 0 -20 -6 -17 -69z"/>
<path d="M6891 3735 c3 -6 11 -22 18 -37 11 -22 11 -31 -2 -57 -13 -26 -13
-31 -1 -31 7 0 21 12 30 26 21 31 11 69 -25 93 -13 8 -22 11 -20 6z"/>
<path d="M7025 3672 c0 -65 1 -68 22 -64 17 3 20 8 14 24 -4 12 -4 40 -1 64 6
40 5 44 -14 44 -19 0 -21 -6 -21 -68z"/>
<path d="M7093 3723 c9 -9 19 -14 23 -11 10 10 -6 28 -24 28 -15 0 -15 -1 1
-17z"/>
<path d="M7255 3675 c0 -38 5 -66 11 -69 7 -3 9 12 6 46 -6 59 13 60 24 3 3
-20 10 -38 15 -41 11 -6 30 39 19 46 -4 3 -15 22 -23 43 -10 23 -23 37 -34 37
-15 0 -18 -9 -18 -65z"/>
<path d="M7359 3733 c-1 -5 -2 -34 -3 -65 -1 -52 1 -58 19 -58 18 0 20 7 20
65 0 55 -3 65 -17 65 -10 0 -19 -3 -19 -7z"/>
<path d="M7460 3693 c-11 -26 -25 -56 -30 -65 -8 -13 -7 -18 3 -18 7 0 18 17
23 38 8 35 31 48 28 16 -1 -8 2 -14 7 -14 5 0 9 -9 9 -20 0 -15 7 -20 25 -20
24 0 25 1 11 23 -7 12 -19 39 -26 59 -17 55 -28 55 -50 1z"/>
<path d="M7573 3710 c6 -16 14 -25 18 -19 3 6 19 -10 35 -35 38 -61 54 -60 54
3 0 27 3 56 6 65 4 11 0 16 -15 16 -18 0 -19 -3 -9 -24 6 -14 8 -32 4 -42 -5
-14 -12 -10 -37 24 -17 23 -39 42 -49 42 -16 0 -17 -4 -7 -30z"/>
<path d="M7710 3733 c1 -12 26 -43 31 -38 3 2 18 -16 34 -40 34 -51 45 -56 45
-20 0 14 -4 25 -9 25 -4 0 -21 18 -36 40 -16 22 -36 40 -46 40 -11 0 -19 -3
-19 -7z"/>
<path d="M7811 3719 c9 -17 13 -19 20 -8 14 22 11 29 -11 29 -18 0 -19 -3 -9
-21z"/>
<path d="M7928 3730 c-22 -13 -32 -63 -18 -89 14 -27 46 -44 70 -36 29 9 24
21 -7 20 -35 0 -53 41 -34 81 9 21 17 25 36 21 14 -2 25 0 25 4 0 12 -51 11
-72 -1z"/>
<path d="M4712 3703 c-11 -4 -62 -93 -62 -108 0 -11 32 -4 46 10 14 13 13 15
-3 15 -13 1 -8 8 20 31 49 41 49 72 -1 52z"/>
<path d="M6494 3679 c-3 -6 -1 -16 5 -22 8 -8 11 -5 11 11 0 24 -5 28 -16 11z"/>
<path d="M6757 3684 c-8 -8 1 -24 14 -24 5 0 9 7 9 15 0 15 -12 20 -23 9z"/>
<path d="M7076 3681 c-3 -5 1 -14 9 -21 13 -10 15 -9 15 9 0 21 -14 28 -24 12z"/>
<path d="M7572 3635 c-10 -22 -9 -25 7 -25 14 0 17 6 13 25 -2 14 -5 25 -7 25
-1 0 -7 -11 -13 -25z"/>
<path d="M7718 3635 c-4 -20 -1 -25 14 -25 16 0 17 3 7 23 -16 31 -16 31 -21
2z"/>
<path d="M6392 3625 c-11 -13 -9 -15 8 -15 11 0 20 7 20 15 0 19 -11 19 -28 0z"/>
<path d="M6776 3625 c-19 -15 -19 -15 2 -15 13 0 22 6 22 15 0 18 0 18 -24 0z"/>
<path d="M7103 3625 c-8 -8 -9 -16 -3 -20 5 -3 14 4 20 15 12 23 1 26 -17 5z"/>
<path d="M7146 3631 c-3 -5 0 -14 8 -20 10 -9 15 -8 19 3 9 22 -15 37 -27 17z"/>
<path d="M4617 3577 c-29 -36 -21 -51 12 -18 10 10 16 23 12 29 -4 7 -13 2
-24 -11z"/>
<path d="M3242 3333 c2 -9 8 -18 15 -20 7 -3 9 3 6 16 -6 25 -26 28 -21 4z"/>
<path d="M3200 3335 c0 -18 19 -40 26 -32 4 4 0 15 -9 24 -9 10 -17 13 -17 8z"/>
<path d="M3350 3210 c0 -5 7 -10 16 -10 8 0 12 5 9 10 -3 6 -10 10 -16 10 -5
0 -9 -4 -9 -10z"/>
<path d="M4015 3040 c-3 -5 1 -10 10 -10 9 0 13 5 10 10 -3 6 -8 10 -10 10 -2
0 -7 -4 -10 -10z"/>
<path d="M4590 2927 c0 -15 31 -69 37 -63 3 3 -4 20 -16 38 -11 18 -21 29 -21
25z"/>
<path d="M3760 2840 c0 -5 10 -10 23 -10 18 0 19 2 7 10 -19 13 -30 13 -30 0z"/>
<path d="M4637 2833 c-4 -3 -7 -18 -7 -31 0 -14 -3 -22 -7 -19 -3 4 -12 2 -19
-4 -11 -9 -11 -16 2 -40 8 -16 18 -29 23 -29 10 0 24 -30 17 -37 -2 -2 -21 13
-41 34 -23 24 -34 30 -29 18 10 -26 9 -75 -2 -84 -5 -3 -9 -55 -9 -116 0 -104
1 -110 23 -120 24 -11 30 -25 9 -25 -17 0 -37 -42 -37 -76 0 -41 34 -27 37 15
2 19 10 42 19 52 9 10 13 23 8 30 -4 8 -3 10 4 5 7 -4 12 -14 12 -23 0 -14 2
-14 19 1 10 9 25 14 35 10 11 -4 16 -1 17 12 0 16 2 16 11 -3 15 -31 28 -29
29 5 6 138 -13 242 -65 355 -37 80 -38 81 -49 70z m56 -398 c-3 -9 -8 -14 -10
-11 -3 3 -2 9 2 15 9 16 15 13 8 -4z"/>
<path d="M3780 2790 c0 -5 -9 -10 -21 -10 -11 0 -18 -4 -14 -10 7 -11 47 2 53
18 2 7 -1 12 -7 12 -6 0 -11 -4 -11 -10z"/>
<path d="M3822 2779 c2 -7 10 -15 17 -17 8 -3 12 1 9 9 -2 7 -10 15 -17 17 -8
3 -12 -1 -9 -9z"/>
<path d="M3680 2770 c0 -5 5 -10 10 -10 6 0 10 5 10 10 0 6 -4 10 -10 10 -5 0
-10 -4 -10 -10z"/>
<path d="M3857 2743 c-14 -4 -17 -11 -12 -30 l6 -25 -23 24 c-24 26 -68 33
-68 11 0 -7 4 -13 9 -13 26 0 64 -21 54 -31 -6 -6 -20 -4 -41 7 -31 15 -72 12
-72 -6 0 -5 6 -7 14 -4 8 3 17 0 21 -5 3 -6 10 -9 15 -6 10 6 35 -23 35 -43 0
-10 12 -19 30 -22 17 -4 43 -14 57 -24 15 -10 32 -15 37 -12 5 4 12 2 16 -4 9
-14 35 -12 33 3 -2 7 7 12 22 12 20 0 26 6 28 28 2 15 8 27 14 27 21 0 -4 15
-25 16 -34 1 -81 16 -89 28 -4 6 -8 21 -8 34 0 13 -6 22 -15 22 -9 0 -12 -6
-9 -17 5 -14 4 -15 -4 -4 -6 8 -8 20 -5 28 3 7 4 12 2 12 -2 -1 -12 -3 -22 -6z"/>
<path d="M3660 2730 c0 -5 4 -10 9 -10 5 0 18 -3 28 -6 16 -6 16 -5 -2 9 -23
19 -35 21 -35 7z"/>
<path d="M2831 2674 c0 -11 3 -14 6 -6 3 7 2 16 -1 19 -3 4 -6 -2 -5 -13z"/>
<path d="M2841 2635 c0 -11 4 -29 9 -40 l9 -20 0 20 c0 11 -4 29 -9 40 l-9 20
0 -20z"/>
<path d="M3730 2640 c8 -5 20 -10 25 -10 6 0 3 5 -5 10 -8 5 -19 10 -25 10 -5
0 -3 -5 5 -10z"/>
<path d="M6563 2640 c-43 -18 -42 -95 2 -106 42 -10 70 -1 70 24 0 28 -19 30
-23 2 -4 -26 -24 -26 -47 0 -15 17 -16 24 -6 46 9 22 17 25 42 22 18 -3 28 -1
26 6 -5 14 -37 17 -64 6z"/>
<path d="M6710 2637 c-17 -8 -26 -22 -28 -43 -4 -39 19 -64 57 -64 56 0 83 73
39 104 -27 19 -35 19 -68 3z m60 -22 c26 -31 -8 -83 -45 -69 -37 15 -25 84 15
84 10 0 23 -7 30 -15z"/>
<path d="M6843 2634 c-2 -6 -3 -31 -1 -55 3 -46 19 -56 28 -19 5 21 5 21 27
-4 23 -27 43 -34 43 -16 0 6 -4 10 -9 10 -15 0 -22 32 -10 46 6 8 9 20 6 28
-7 18 -77 27 -84 10z m62 -24 c0 -8 -8 -16 -17 -18 -13 -2 -18 3 -18 18 0 15
5 20 18 18 9 -2 17 -10 17 -18z"/>
<path d="M6980 2587 l0 -60 42 6 c65 9 89 56 48 97 -13 13 -32 19 -55 18 l-35
-1 0 -60z m80 23 c15 -28 -4 -60 -35 -60 -22 0 -25 4 -25 40 0 36 3 40 25 40
14 0 29 -8 35 -20z"/>
<path d="M7144 2625 c-27 -27 -26 -59 4 -82 37 -29 102 1 102 47 0 26 -34 60
-60 60 -12 0 -32 -11 -46 -25z m75 -17 c13 -34 -5 -60 -37 -56 -28 3 -40 32
-28 64 9 23 55 17 65 -8z"/>
<path d="M7297 2644 c-11 -11 -8 -104 3 -104 6 0 10 14 10 30 0 17 2 30 5 30
3 0 20 -17 39 -37 l34 -37 3 53 c2 29 1 58 -3 64 -4 7 -8 -5 -8 -25 0 -21 -4
-38 -9 -38 -5 0 -22 16 -38 36 -15 19 -32 32 -36 28z"/>
<path d="M7517 2594 c-28 -56 -31 -86 -5 -45 16 26 46 27 64 4 7 -10 15 -15
18 -12 7 7 -34 109 -43 109 -4 0 -19 -25 -34 -56z m43 -5 c0 -5 -7 -9 -15 -9
-15 0 -20 12 -9 23 8 8 24 -1 24 -14z"/>
<path d="M7640 2594 c0 -35 4 -53 10 -49 6 4 8 11 5 16 -4 5 -3 19 0 30 7 20
9 19 37 -15 16 -20 34 -36 39 -36 5 0 8 26 7 58 -1 42 -2 47 -5 20 -2 -21 -8
-38 -13 -38 -5 0 -21 16 -36 35 -14 19 -30 35 -35 35 -5 0 -9 -25 -9 -56z"/>
<path d="M7797 2643 c-4 -3 -7 -28 -7 -55 l0 -48 39 0 c23 0 46 7 55 16 23 22
20 71 -3 84 -22 11 -74 14 -84 3z m68 -17 c28 -20 10 -71 -25 -71 -20 0 -26 6
-28 28 -6 55 14 71 53 43z"/>
<path d="M3860 2531 c0 -8 6 -11 15 -7 9 3 18 0 21 -8 7 -18 64 -19 64 0 0 8
-10 14 -25 14 -14 0 -25 4 -25 9 0 5 -11 8 -25 7 -14 0 -25 -7 -25 -15z"/>
<path d="M7178 2464 c-55 -17 -118 -83 -136 -142 -22 -71 -15 -153 16 -213 38
-72 84 -99 172 -99 145 1 230 90 230 241 0 121 -53 197 -150 218 -63 14 -73
13 -132 -5z m157 -44 c38 -36 60 -105 59 -190 0 -123 -57 -200 -147 -200 -81
0 -127 50 -147 158 -19 104 11 204 73 243 44 28 127 22 162 -11z"/>
<path d="M7670 2474 c-56 -19 -93 -41 -115 -70 -71 -93 -74 -246 -8 -325 79
-94 263 -88 333 11 71 100 64 269 -16 339 -48 42 -138 63 -194 45z m120 -42
c85 -61 102 -264 29 -347 -57 -64 -142 -70 -198 -14 -69 68 -76 256 -14 330
51 60 126 73 183 31z"/>
<path d="M7965 2245 c0 -208 1 -225 18 -225 16 0 17 17 17 225 0 208 -1 225
-17 225 -17 0 -18 -17 -18 -225z"/>
<path d="M6550 2282 c0 -125 -4 -193 -14 -225 l-14 -47 31 0 32 0 -3 186 c-2
103 0 190 5 195 6 6 36 -60 73 -158 35 -93 69 -179 76 -193 l12 -25 11 25 c6
14 42 98 79 188 37 90 72 164 77 165 6 1 9 -77 9 -189 l-1 -191 38 1 39 1 -8
55 c-4 30 -7 131 -7 223 l0 168 -39 -3 -38 -3 -40 -95 c-22 -52 -53 -126 -68
-165 -15 -38 -32 -71 -37 -72 -6 -2 -37 73 -69 167 l-59 170 -42 0 -43 0 0
-178z"/>
<path d="M2892 2425 c0 -11 4 -33 8 -50 7 -27 8 -27 8 -5 0 14 -4 36 -8 50 -6
20 -8 21 -8 5z"/>
<path d="M3510 2354 c0 -23 29 -54 50 -54 11 0 10 3 -2 13 -8 6 -22 23 -32 37
-15 23 -16 23 -16 4z"/>
<path d="M5048 2331 c-30 -15 -38 -16 -42 -5 -3 8 -12 14 -21 14 -13 0 -15
-19 -15 -120 0 -113 1 -120 20 -120 18 0 20 7 20 78 1 88 12 111 62 121 23 5
33 12 33 26 0 26 -15 28 -57 6z"/>
<path d="M5192 2333 c-41 -20 -62 -59 -62 -117 0 -36 6 -52 31 -80 41 -47 86
-56 134 -26 l35 22 0 -32 c0 -36 -38 -80 -70 -80 -25 0 -61 18 -75 37 -9 12
-13 12 -29 0 -17 -13 -17 -15 14 -40 24 -20 42 -27 75 -27 106 0 125 33 125
214 0 129 -1 136 -20 136 -11 0 -20 -7 -20 -15 0 -12 -6 -12 -37 5 -45 24 -58
24 -101 3z m93 -29 c22 -9 45 -57 45 -94 0 -19 -9 -40 -25 -55 -53 -54 -135
-15 -135 65 0 66 55 107 115 84z"/>
<path d="M4750 2319 c0 -17 4 -20 28 -14 43 9 81 -10 98 -50 18 -45 10 -78
-28 -110 -40 -34 -54 -32 -80 15 -13 22 -26 40 -30 40 -5 0 -8 -18 -8 -40 0
-22 -7 -75 -15 -117 -8 -43 -23 -125 -34 -183 -11 -58 -37 -184 -57 -280 -36
-176 -39 -232 -19 -375 31 -222 44 -389 32 -402 -4 -3 -7 6 -7 22 0 50 -22
155 -32 155 -6 0 -7 -39 -3 -107 6 -107 1 -175 -29 -365 -21 -131 -38 -292
-43 -410 l-4 -98 50 0 c36 0 53 5 59 16 8 15 10 15 15 0 4 -9 13 -16 22 -16
11 0 15 13 16 53 4 148 9 200 20 214 8 9 12 39 11 78 -2 34 8 136 22 226 36
243 38 269 40 576 1 155 4 285 7 287 3 3 11 -54 17 -127 6 -72 28 -220 47
-327 37 -205 48 -302 65 -595 5 -99 13 -226 16 -282 l6 -103 653 0 653 0 6 73
c3 39 13 171 22 292 26 335 29 540 9 626 -8 39 -25 90 -36 113 -25 49 -83 112
-122 132 -48 25 -141 98 -467 365 -122 100 -324 239 -425 293 -52 28 -121 67
-227 127 -35 20 -80 42 -100 48 -50 16 -53 24 -18 49 59 44 59 146 -1 196 -24
20 -41 26 -80 26 -43 0 -49 -3 -49 -21z m-69 -1986 c-9 -16 -10 -15 -11 8 0
14 3 29 8 33 12 12 14 -22 3 -41z m-86 -88 c-10 -28 -14 -33 -15 -17 0 20 20
65 27 59 1 -2 -4 -21 -12 -42z m57 -17 c-6 -6 -15 -7 -21 -4 -7 4 -4 13 7 24
13 14 18 15 20 4 2 -8 -1 -19 -6 -24z"/>
<path d="M4613 2297 c8 -20 -7 -38 -32 -40 -18 -1 -21 -7 -20 -37 1 -19 0 -42
-2 -50 -2 -8 2 -14 9 -12 14 2 7 -44 -11 -65 -7 -9 -5 -13 7 -13 9 0 16 7 16
15 0 8 11 17 24 21 14 3 29 18 36 35 7 16 16 29 21 29 9 0 24 40 21 54 -2 4 5
14 15 21 10 7 15 17 10 21 -4 4 -12 3 -18 -3 -6 -6 -18 -9 -25 -6 -9 3 -14 -2
-15 -13 -1 -21 -4 -13 -13 29 -4 15 -11 27 -17 27 -6 0 -9 -6 -6 -13z m-3 -78
c0 -6 -4 -7 -10 -4 -5 3 -10 11 -10 16 0 6 5 7 10 4 6 -3 10 -11 10 -16z"/>
<path d="M2876 2098 c3 -10 10 -18 16 -18 5 0 6 -5 3 -10 -4 -6 -10 -8 -15 -5
-4 3 -6 -4 -3 -14 3 -13 -2 -23 -16 -30 -27 -15 -27 -46 -1 -64 14 -10 18 -20
14 -33 -5 -12 1 -9 16 9 33 41 34 127 2 159 -17 18 -21 19 -16 6z m34 -87 c0
-13 -29 -35 -37 -28 -7 8 15 37 28 37 5 0 9 -4 9 -9z"/>
<path d="M6753 1950 c-23 -10 -43 -39 -43 -64 0 -26 38 -56 70 -56 64 0 92 71
44 109 -29 23 -38 24 -71 11z m56 -24 c7 -8 11 -27 9 -43 -2 -23 -9 -29 -32
-31 -31 -4 -46 10 -46 44 0 40 45 59 69 30z"/>
<path d="M6972 1906 c4 -69 20 -86 65 -70 26 9 28 14 31 69 1 42 -1 55 -8 44
-5 -9 -7 -26 -5 -39 6 -33 -12 -62 -38 -58 -18 2 -23 11 -25 48 -5 70 -24 76
-20 6z"/>
<path d="M7200 1933 c0 -17 -3 -45 -6 -62 -4 -20 -3 -31 5 -31 6 0 11 16 11
35 0 19 4 35 9 35 5 0 23 -16 40 -35 17 -19 35 -35 41 -35 6 0 10 26 10 61 0
37 -4 58 -10 54 -5 -3 -10 -23 -10 -43 l0 -36 -45 44 -45 44 0 -31z"/>
<path d="M7437 1953 c-4 -3 -7 -30 -7 -60 l0 -53 43 0 c31 0 49 6 62 20 23 25
23 70 -1 87 -18 13 -86 18 -97 6z m77 -19 c31 -30 9 -84 -35 -84 -16 0 -19 7
-19 43 0 60 21 75 54 41z"/>
<path d="M7675 1910 c-14 -27 -25 -54 -25 -60 0 -18 18 -11 23 10 7 27 41 26
60 -2 8 -13 18 -20 22 -16 9 9 -34 118 -46 118 -5 0 -20 -22 -34 -50z m45 -12
c0 -5 -7 -8 -15 -8 -15 0 -20 21 -8 33 7 7 23 -11 23 -25z"/>
<path d="M7870 1951 c22 -6 25 -13 28 -59 2 -29 7 -52 12 -52 5 0 10 23 12 52
3 46 6 53 28 59 16 4 1 7 -40 7 -41 0 -56 -3 -40 -7z"/>
<path d="M6520 1890 c0 -47 3 -60 15 -60 9 0 15 9 15 25 0 20 5 25 25 25 14 0
25 5 25 10 0 6 -12 10 -26 10 -37 0 -28 33 11 41 25 6 22 7 -17 8 l-48 1 0
-60z"/>
<path d="M6695 930 c-3 -5 -1 -10 4 -10 6 0 11 5 11 10 0 6 -2 10 -4 10 -3 0
-8 -4 -11 -10z"/>
<path d="M6652 913 c-50 -20 -56 -150 -12 -281 17 -50 30 -102 30 -117 0 -39
16 -62 47 -70 31 -7 105 -74 97 -86 -11 -18 -110 16 -154 53 -32 26 -69 84
-84 133 l-16 50 5 -45 c16 -121 135 -223 260 -223 34 0 68 -6 80 -13 11 -8 26
-14 35 -14 12 1 12 3 -2 11 -27 15 -22 25 25 43 79 30 155 125 171 214 8 48
-7 39 -26 -16 -30 -83 -79 -137 -163 -177 l-75 -36 -45 42 c-43 40 -57 69 -35
69 19 0 119 69 150 102 45 49 82 130 78 170 l-4 33 -13 -45 c-13 -47 -60 -130
-74 -130 -4 0 -4 18 -1 39 6 37 4 41 -27 60 -19 12 -43 21 -54 21 -55 0 -91
-69 -60 -116 9 -14 19 -23 23 -20 3 4 0 12 -6 18 -16 16 -15 63 2 77 7 6 27 8
45 5 49 -10 67 -60 34 -96 -9 -11 -11 -18 -5 -18 25 0 10 -20 -38 -49 -67 -41
-92 -47 -105 -23 -53 98 -50 87 -26 127 12 21 20 40 17 42 -2 3 -12 -9 -21
-26 -8 -17 -20 -31 -24 -31 -5 0 -19 30 -31 66 -30 89 -30 196 0 236 11 15 19
28 18 27 -2 0 -9 -3 -16 -6z m65 -446 c-2 -6 -11 0 -21 15 -10 15 -14 32 -10
39 8 14 37 -36 31 -54z"/>
<path d="M6890 846 c0 -2 8 -10 18 -17 15 -13 16 -12 3 4 -13 16 -21 21 -21
13z"/>
<path d="M4826 330 c-3 -16 -9 -43 -12 -59 -3 -16 -1 -32 4 -35 5 -3 9 0 9 7
0 7 3 36 7 65 7 56 1 72 -8 22z"/>
<path d="M4726 270 c-22 -62 -34 -176 -18 -166 7 4 12 16 12 26 0 10 4 21 9
24 5 3 7 15 4 26 -3 11 -1 20 5 20 9 0 32 73 32 104 0 34 -27 13 -44 -34z"/>
<path d="M3306 200 c3 -30 10 -64 14 -76 5 -11 6 -33 3 -48 -4 -20 -2 -27 6
-22 6 4 11 1 11 -9 0 -13 4 -14 20 -5 14 7 20 7 20 0 0 -5 4 -10 10 -10 6 0 6
9 1 23 -4 12 -6 29 -4 37 3 11 2 12 -4 2 -12 -16 -47 20 -50 52 -8 61 -10 73
-22 91 -10 17 -11 11 -5 -35z"/>
<path d="M4806 204 c-4 -9 -4 -19 -1 -22 2 -3 7 3 11 12 4 9 4 19 1 22 -2 3
-7 -3 -11 -12z"/>
<path d="M3354 164 c0 -21 3 -30 8 -22 10 16 10 45 1 51 -5 3 -8 -10 -9 -29z"/>
<path d="M6550 180 c0 -5 5 -10 10 -10 6 0 10 5 10 10 0 6 -4 10 -10 10 -5 0
-10 -4 -10 -10z"/>
<path d="M6585 180 c3 -5 8 -10 11 -10 2 0 4 5 4 10 0 6 -5 10 -11 10 -5 0 -7
-4 -4 -10z"/>
<path d="M7084 159 c-4 -7 -7 -21 -8 -33 -1 -11 -9 -22 -18 -24 -14 -3 -18 3
-18 28 0 31 0 31 -47 28 -46 -3 -48 -4 -51 -36 -4 -39 11 -62 37 -55 30 8 34
-15 7 -42 -21 -21 -22 -25 -7 -25 19 0 61 39 61 58 0 8 21 12 64 12 60 0 64 1
68 25 3 14 3 36 0 50 -4 21 -10 25 -43 25 -21 0 -41 -5 -45 -11z m-66 -42 c4
-20 -25 -34 -40 -19 -15 15 -1 44 19 40 10 -2 19 -11 21 -21z m128 12 c3 -6 0
-17 -7 -25 -18 -17 -44 -2 -36 20 7 18 33 21 43 5z"/>
<path d="M4796 145 c-3 -9 -6 -26 -5 -38 1 -14 4 -9 9 13 9 37 7 52 -4 25z"/>
<path d="M6537 154 c-4 -4 -7 -27 -7 -51 l0 -43 185 0 185 0 0 29 c0 44 -40
71 -106 71 l-53 0 -3 -37 c-4 -47 -22 -53 -35 -11 -10 33 -12 32 -28 -17 -2
-8 -13 -15 -24 -15 -16 0 -20 8 -23 38 -3 36 -5 37 -43 40 -23 2 -44 0 -48 -4z
m271 -42 c3 -16 -2 -22 -17 -22 -26 0 -36 17 -20 36 16 19 33 13 37 -14z
m-210 -4 c-4 -27 -33 -36 -42 -13 -8 22 1 35 25 35 15 0 20 -6 17 -22z m280
-5 c2 -8 -5 -13 -17 -13 -12 0 -21 6 -21 16 0 18 31 15 38 -3z"/>
<path d="M4052 141 c-10 -6 -4 -10 18 -15 48 -9 54 -8 40 9 -14 17 -38 19 -58
6z"/>
<path d="M4265 130 c-3 -5 -1 -10 4 -10 6 0 11 5 11 10 0 6 -2 10 -4 10 -3 0
-8 -4 -11 -10z"/>
<path d="M4030 105 c0 -11 148 -40 157 -31 10 10 -44 29 -99 35 -41 5 -58 4
-58 -4z"/>
<path d="M4280 100 c0 -5 5 -10 10 -10 6 0 10 5 10 10 0 6 -4 10 -10 10 -5 0
-10 -4 -10 -10z"/>
<path d="M4778 35 c-2 -19 0 -35 4 -35 4 0 8 16 8 35 0 45 -7 45 -12 0z"/>
<path d="M6665 40 c3 -5 8 -10 11 -10 2 0 4 5 4 10 0 6 -5 10 -11 10 -5 0 -7
-4 -4 -10z"/>
</g>
</svg>
