<?xml version="1.0" standalone="no"?>
<!DOCTYPE svg PUBLIC "-//W3C//DTD SVG 20010904//EN"
 "http://www.w3.org/TR/2001/REC-SVG-20010904/DTD/svg10.dtd">
<svg version="1.0" xmlns="http://www.w3.org/2000/svg"
 width="300.000000pt" height="363.000000pt" viewBox="0 0 300.000000 363.000000"
 preserveAspectRatio="xMidYMid meet">
<metadata>
Created by potrace 1.10, written by Peter Selinger 2001-2011
</metadata>
<g transform="translate(0.000000,363.000000) scale(0.050000,-0.050000)"
fill="#000000" stroke="none">
<path d="M2800 6827 c0 -10 -54 -31 -120 -45 -67 -15 -126 -35 -132 -45 -6 -9
-29 -17 -51 -17 -28 0 -38 -9 -30 -29 13 -33 -53 -62 -90 -39 -16 10 -20 4
-11 -19 12 -32 -24 -44 -101 -34 -14 1 -25 -5 -25 -14 0 -9 -23 -18 -50 -20
-48 -4 -146 -43 -210 -83 -16 -10 -66 -34 -109 -53 -44 -19 -107 -63 -140 -97
-34 -34 -115 -110 -181 -169 -224 -200 -242 -220 -314 -367 -145 -296 -198
-495 -211 -788 -15 -356 20 -572 90 -555 49 12 245 -164 245 -222 0 -104 -162
-39 -232 94 -52 99 -68 62 -67 -160 0 -234 40 -258 69 -43 17 125 44 123 125
-11 64 -106 84 -189 45 -193 -11 -2 -28 -4 -38 -5 -10 -2 -25 -10 -34 -18 -8
-8 -35 -15 -60 -15 -96 0 -76 -166 32 -270 64 -62 96 -58 62 7 -34 62 -27 103
18 103 22 0 64 27 93 60 73 81 76 79 114 -78 38 -159 41 -210 12 -192 -21 13
-15 -47 13 -135 11 -37 9 -41 -15 -21 -23 19 -29 16 -32 -15 -2 -35 17 -48 60
-41 8 1 3 -27 -12 -63 -25 -61 -32 -65 -128 -65 -123 0 -110 -39 22 -65 l83
-16 30 -173 c28 -161 57 -242 62 -174 2 15 5 37 7 48 3 11 6 32 8 46 8 70 45
-18 92 -221 74 -324 91 -379 133 -438 21 -29 38 -68 38 -86 0 -18 14 -37 30
-44 17 -6 30 -24 30 -39 0 -15 11 -26 24 -23 14 3 40 -24 58 -60 43 -85 79
-127 98 -115 9 6 12 -8 6 -30 -7 -25 1 -44 22 -52 17 -7 32 -28 32 -48 0 -20
14 -41 30 -47 17 -7 30 -25 30 -41 0 -16 11 -33 25 -39 18 -8 16 -18 -8 -38
-31 -25 -31 -30 5 -76 23 -30 34 -35 26 -14 -17 48 17 44 48 -6 14 -22 34 -35
45 -29 10 7 19 -1 19 -18 0 -41 41 -63 60 -32 12 20 31 15 79 -19 35 -25 68
-41 74 -35 21 21 127 -31 129 -63 0 -18 5 -23 10 -11 12 30 101 14 190 -33 40
-21 77 -33 84 -27 6 7 58 2 115 -10 103 -23 259 -1 259 36 0 8 34 26 75 39 65
20 212 184 216 242 0 6 15 38 32 71 17 33 27 73 22 88 -7 19 0 25 19 17 16 -6
40 6 54 29 14 23 37 35 54 28 17 -7 25 -3 18 8 -7 11 3 20 21 20 37 0 229 184
229 219 0 43 -59 19 -93 -39 -32 -53 -194 -150 -269 -161 -65 -9 -98 3 -98 35
0 26 -5 29 -24 10 -37 -37 -70 -29 -123 29 -56 60 -91 68 -362 79 -164 7 -207
16 -241 48 -24 22 -62 40 -86 40 -25 0 -71 25 -104 55 -33 30 -71 65 -85 77
-14 13 -38 42 -54 65 -17 24 -42 43 -57 43 -14 0 -21 8 -15 19 7 10 -3 27 -21
37 -21 12 -28 29 -18 44 29 47 29 184 0 160 -18 -15 -29 -12 -37 10 -14 37 -9
62 12 55 8 -3 15 8 15 25 0 16 -14 30 -30 30 -17 0 -41 23 -54 50 -17 37 -33
47 -61 38 -32 -10 -37 -5 -26 30 8 25 5 42 -8 42 -11 0 -21 23 -21 50 0 28 10
50 21 50 12 0 15 11 7 23 -10 16 -3 20 20 10 20 -7 47 -13 60 -13 14 0 36 -22
48 -50 30 -64 90 -64 124 0 15 28 36 50 48 50 42 -1 192 -78 192 -98 0 -12 14
-16 30 -9 17 6 43 1 59 -12 15 -13 40 -21 55 -18 40 8 215 -22 316 -53 174
-54 589 -86 785 -60 88 11 115 9 115 -11 0 -14 6 -20 13 -13 7 8 25 4 40 -9
20 -16 35 -15 57 3 17 14 30 17 30 7 2 -82 120 -57 120 26 0 15 14 27 30 27
17 0 30 17 30 39 0 46 32 72 47 36 5 -14 10 7 10 45 0 100 -27 164 -48 113
-13 -33 -17 -34 -33 -5 -10 18 -29 32 -42 32 -13 0 -36 26 -50 58 -53 120
-160 94 -126 -31 26 -94 28 -149 4 -142 -9 3 -46 -20 -81 -52 -81 -71 -167
-84 -281 -43 -164 60 -284 86 -359 76 -51 -7 -99 3 -156 32 -56 28 -139 46
-259 54 -302 21 -442 92 -416 209 7 33 26 59 42 59 21 0 25 14 16 51 -10 38
-1 65 35 103 31 34 39 54 23 60 -18 7 -19 21 0 62 41 95 94 113 87 30 -8 -111
205 -250 381 -247 25 0 54 -17 66 -39 54 -102 211 -107 266 -9 20 37 49 36
121 -1 69 -36 114 -38 181 -7 112 51 55 145 -98 162 -54 6 -102 20 -105 31
-21 61 -342 173 -441 154 -257 -50 -365 56 -164 160 75 39 82 39 102 7 13 -22
23 -20 52 8 32 33 32 35 0 35 -56 0 -39 47 55 151 49 55 94 121 101 149 20 78
49 100 127 100 112 -1 128 -22 165 -214 46 -236 103 -366 160 -366 l44 0 -44
39 c-33 28 -98 192 -102 255 0 3 20 23 44 45 l43 41 -44 46 c-58 63 -43 187
19 148 21 -13 38 -38 38 -57 0 -18 15 -38 32 -45 27 -10 28 -18 7 -44 -18 -21
-20 -36 -6 -45 12 -7 67 -49 124 -92 77 -60 123 -80 187 -83 l85 -5 -50 40
c-42 34 -43 38 -9 30 58 -14 228 -33 180 -20 -154 42 -36 52 168 14 167 -31 4
241 -206 344 -165 80 -114 79 169 -4 l171 -51 5 -153 5 -153 -76 -37 c-326
-157 -315 -148 -265 -209 l37 -46 86 48 c189 107 214 125 222 156 8 28 146 66
170 48 9 -8 -73 -207 -107 -259 -93 -142 -430 -153 -750 -24 -134 55 -139 52
-68 -31 39 -48 47 -74 38 -125 -13 -70 126 -159 213 -136 39 10 54 65 18 65
-11 0 -20 13 -20 29 0 31 -97 91 -147 91 -16 0 -34 15 -41 32 -10 25 -4 29 23
19 75 -30 334 -71 445 -71 207 0 291 56 360 239 28 75 59 123 88 137 60 27
114 144 111 239 -4 102 114 395 133 330 25 -87 41 -44 20 55 -15 74 -13 125 5
194 22 82 20 108 -14 215 -70 217 -110 456 -116 699 -7 283 -45 385 -181 482
-46 33 -84 67 -85 76 -1 17 -48 72 -193 226 -84 90 -197 135 -118 48 67 -74
-10 -43 -191 78 -97 65 -197 125 -222 133 -25 8 -88 44 -140 79 -56 39 -154
79 -241 101 -80 19 -231 66 -336 104 -192 70 -560 117 -560 72z m-490 -350
c-63 -22 -125 -35 -137 -31 -28 9 98 69 167 79 98 14 82 -10 -30 -48z m435
-1402 c-11 -43 -9 -43 27 -12 37 32 215 44 196 14 -5 -8 25 -10 67 -5 115 14
190 9 219 -15 19 -16 26 -16 26 1 0 12 9 22 20 22 54 0 -47 -139 -102 -141
-17 0 -5 -21 28 -50 51 -44 74 -49 250 -51 203 -3 293 -10 335 -26 14 -5 29 7
35 28 13 51 173 120 221 96 26 -14 43 -10 60 14 27 36 146 69 258 70 41 0 75
8 75 18 0 9 18 22 40 28 22 6 35 2 29 -8 -15 -24 -1 -23 61 6 64 29 74 16 123
-144 68 -226 112 -558 94 -715 -12 -104 -47 -128 -47 -31 0 81 -99 219 -191
266 -74 39 -148 56 -406 93 -100 15 -302 -28 -317 -67 -6 -14 -23 -26 -38 -26
-31 0 -59 -86 -39 -119 21 -33 -168 -26 -275 11 -85 29 -93 36 -81 82 9 36 0
62 -30 93 -79 80 -137 163 -129 185 8 23 -153 113 -222 125 -219 38 -606 23
-699 -26 l-96 -52 41 58 c22 31 92 101 156 155 63 54 131 114 151 133 55 55
174 48 160 -10z m-878 -375 c-11 -55 -7 -60 46 -62 43 -1 29 -11 -63 -40 -153
-48 -164 -43 -90 38 33 37 60 79 60 95 0 16 13 29 30 29 22 0 26 -15 17 -60z
m863 -202 c28 -11 11 -16 -60 -18 -55 -1 -140 -10 -190 -20 -167 -32 -170 -32
-164 5 4 24 -8 36 -40 38 -25 2 -5 9 44 17 101 15 349 2 410 -22z m1835 -249
c34 -13 49 -49 20 -49 -8 0 -69 18 -135 39 l-120 38 100 -7 c55 -4 116 -13
135 -21z m-2545 -116 c0 -162 77 -286 228 -365 60 -31 105 -64 99 -72 -5 -9 2
-19 17 -23 224 -60 396 -127 391 -153 -10 -52 -257 -201 -297 -179 -48 26 -58
24 -58 -10 0 -16 -24 -31 -55 -35 -33 -3 -55 -18 -55 -36 0 -38 -55 -62 -75
-32 -21 32 -18 56 5 42 11 -7 20 -4 20 6 0 32 -98 41 -122 11 -35 -41 -64 -33
-108 33 -22 33 -47 60 -55 60 -8 0 -15 9 -15 21 0 11 -22 42 -50 67 -27 25
-45 51 -39 57 6 5 -7 43 -30 83 -23 40 -41 86 -41 103 0 16 -8 29 -18 29 -10
0 -23 14 -30 31 -6 17 -4 26 6 20 10 -6 23 2 29 18 11 28 -55 65 -95 54 -10
-3 -7 9 7 26 21 25 20 33 -4 42 -49 19 -46 203 5 219 22 7 47 8 56 3 9 -6 28
-3 44 7 18 11 48 3 85 -24 32 -22 60 -37 63 -33 4 4 17 27 30 52 34 65 62 55
62 -22z m161 -16 c36 4 84 -2 107 -13 270 -128 623 -174 734 -97 26 18 53 33
60 33 20 0 65 -119 51 -134 -7 -7 -13 -2 -13 11 0 55 -77 20 -111 -51 -33 -70
-36 -72 -51 -30 -17 45 -47 57 -67 26 -6 -10 3 -23 20 -30 21 -8 27 -25 20
-50 -29 -91 126 -74 214 23 30 33 55 51 55 40 0 -51 -161 -165 -235 -167 -581
-19 -907 152 -904 472 l0 60 28 -50 c22 -40 40 -49 92 -43z m2241 -69 c83 -79
61 -79 -72 1 -146 88 -148 91 -59 71 40 -9 99 -42 131 -72z m457 -87 c35 -64
24 -96 -39 -118 -76 -27 -89 -3 -45 85 40 81 55 87 84 33z"/>
<path d="M1320 3520 c0 -23 89 -120 111 -120 5 0 9 18 9 40 0 22 -11 40 -23
40 -13 0 -40 15 -60 33 -27 24 -37 26 -37 7z"/>
<path d="M1568 2550 c7 -77 13 -198 14 -270 2 -120 4 -124 18 -50 9 44 13 85
9 92 -4 6 -9 80 -11 163 -2 83 -12 163 -22 178 -13 18 -15 -22 -8 -113z"/>
<path d="M2860 2557 c0 -50 106 -185 128 -163 6 7 12 2 12 -11 0 -12 19 -23
41 -23 27 0 36 -8 27 -23 -9 -16 -4 -20 15 -12 17 6 136 0 264 -14 331 -36
471 0 368 96 -93 86 -142 113 -208 113 -36 0 -71 10 -78 21 -8 14 -98 20 -256
16 -134 -3 -259 1 -278 11 -25 11 -35 8 -35 -11z"/>
<path d="M1593 2127 c-7 -8 -13 -86 -13 -174 0 -202 13 -192 28 22 11 165 10
176 -15 152z"/>
<path d="M1507 1687 c-124 -60 -152 -228 -33 -198 31 8 46 3 46 -15 0 -14 26
-46 58 -69 l58 -44 -18 68 c-11 38 -26 118 -34 179 l-14 110 -63 -31z"/>
</g>
</svg>
