<?xml version="1.0" encoding="UTF-8" standalone="yes"?>
<svg width="400px" height="400px" viewBox="0 0 400 400" version="1.2" baseProfile="tiny-ps" xmlns="http://www.w3.org/2000/svg">
  <title>bimi-svg-tiny-12-ps</title>
  <g id="surface1">
    <path d="M 186.667969 23.84375 C 186.667969 24.394531 183.066406 25.550781 178.667969 26.320312 C 174.199219 27.148438 170.265625 28.25 169.867188 28.800781 C 169.464844 29.296875 167.933594 29.734375 166.464844 29.734375 C 164.601562 29.734375 163.933594 30.230469 164.464844 31.332031 C 165.332031 33.148438 160.933594 34.746094 158.464844 33.480469 C 157.398438 32.929688 157.132812 33.261719 157.734375 34.527344 C 158.535156 36.289062 156.132812 36.949219 151 36.398438 C 150.066406 36.34375 149.332031 36.675781 149.332031 37.167969 C 149.332031 37.664062 147.800781 38.160156 146 38.269531 C 142.800781 38.492188 136.265625 40.640625 132 42.839844 C 130.933594 43.390625 127.601562 44.714844 124.734375 45.761719 C 121.800781 46.804688 117.601562 49.230469 115.398438 51.101562 C 113.132812 52.972656 107.734375 57.160156 103.332031 60.40625 C 88.398438 71.421875 87.199219 72.523438 82.398438 80.617188 C 72.734375 96.917969 69.199219 107.875 68.332031 124.007812 C 67.332031 143.613281 69.667969 155.507812 74.332031 154.570312 C 77.601562 153.910156 90.667969 163.601562 90.667969 166.796875 C 90.667969 172.523438 79.867188 168.941406 75.199219 161.617188 C 71.734375 156.167969 70.667969 158.203125 70.734375 170.429688 C 70.734375 183.316406 73.398438 184.636719 75.332031 172.796875 C 76.464844 165.914062 78.265625 166.023438 83.667969 173.402344 C 87.933594 179.238281 89.265625 183.8125 86.667969 184.03125 C 85.933594 184.140625 84.800781 184.25 84.132812 184.304688 C 83.464844 184.417969 82.464844 184.855469 81.867188 185.296875 C 81.332031 185.738281 79.535156 186.125 77.867188 186.125 C 71.464844 186.125 72.800781 195.265625 80 200.992188 C 84.265625 204.40625 86.398438 204.183594 84.132812 200.605469 C 81.867188 197.191406 82.332031 194.933594 85.332031 194.933594 C 86.800781 194.933594 89.601562 193.445312 91.535156 191.628906 C 96.398438 187.167969 96.601562 187.28125 99.132812 195.925781 C 101.667969 204.679688 101.867188 207.488281 99.933594 206.496094 C 98.535156 205.78125 98.933594 209.085938 100.800781 213.933594 C 101.535156 215.96875 101.398438 216.1875 99.800781 215.089844 C 98.265625 214.042969 97.867188 214.207031 97.667969 215.914062 C 97.535156 217.839844 98.800781 218.558594 101.667969 218.171875 C 102.199219 218.117188 101.867188 219.660156 100.867188 221.640625 C 99.199219 225 98.734375 225.21875 92.332031 225.21875 C 84.132812 225.21875 85 227.367188 93.800781 228.800781 L 99.332031 229.679688 L 101.332031 239.207031 C 103.199219 248.074219 105.132812 252.53125 105.464844 248.789062 C 105.601562 247.960938 105.800781 246.75 105.933594 246.144531 C 106.132812 245.539062 106.332031 244.382812 106.464844 243.613281 C 107 239.757812 109.464844 244.605469 112.601562 255.78125 C 117.535156 273.625 118.667969 276.652344 121.464844 279.902344 C 122.867188 281.496094 124 283.644531 124 284.636719 C 124 285.628906 124.933594 286.675781 126 287.058594 C 127.132812 287.390625 128 288.382812 128 289.207031 C 128 290.03125 128.734375 290.640625 129.601562 290.472656 C 130.535156 290.308594 132.265625 291.796875 133.464844 293.777344 C 136.332031 298.457031 138.734375 300.769531 140 300.109375 C 140.601562 299.78125 140.800781 300.550781 140.398438 301.761719 C 139.933594 303.140625 140.464844 304.183594 141.867188 304.625 C 143 305.011719 144 306.167969 144 307.269531 C 144 308.371094 144.933594 309.527344 146 309.855469 C 147.132812 310.242188 148 311.234375 148 312.113281 C 148 312.996094 148.734375 313.933594 149.667969 314.261719 C 150.867188 314.703125 150.734375 315.253906 149.132812 316.355469 C 147.066406 317.730469 147.066406 318.007812 149.464844 320.539062 C 151 322.191406 151.734375 322.46875 151.199219 321.3125 C 150.066406 318.667969 152.332031 318.886719 154.398438 321.640625 C 155.332031 322.851562 156.667969 323.566406 157.398438 323.238281 C 158.066406 322.851562 158.667969 323.292969 158.667969 324.230469 C 158.667969 326.488281 161.398438 327.699219 162.667969 325.992188 C 163.464844 324.890625 164.734375 325.164062 167.933594 327.039062 C 170.265625 328.414062 172.464844 329.296875 172.867188 328.964844 C 174.265625 327.808594 181.332031 330.671875 181.464844 332.433594 C 181.464844 333.425781 181.800781 333.699219 182.132812 333.039062 C 182.933594 331.386719 188.867188 332.269531 194.800781 334.855469 C 197.464844 336.011719 199.933594 336.675781 200.398438 336.34375 C 200.800781 335.957031 204.265625 336.234375 208.066406 336.894531 C 214.933594 338.160156 225.332031 336.949219 225.332031 334.910156 C 225.332031 334.472656 227.601562 333.480469 230.332031 332.765625 C 234.667969 331.664062 244.464844 322.632812 244.734375 319.4375 C 244.734375 319.109375 245.734375 317.347656 246.867188 315.527344 C 248 313.710938 248.667969 311.507812 248.332031 310.683594 C 247.867188 309.636719 248.332031 309.304688 249.601562 309.746094 C 250.667969 310.078125 252.265625 309.417969 253.199219 308.148438 C 254.132812 306.882812 255.667969 306.222656 256.800781 306.609375 C 257.933594 306.992188 258.464844 306.773438 258 306.167969 C 257.535156 305.5625 258.199219 305.066406 259.398438 305.066406 C 261.867188 305.066406 274.667969 294.933594 274.667969 293.007812 C 274.667969 290.640625 270.734375 291.960938 268.464844 295.152344 C 266.332031 298.074219 255.535156 303.414062 250.535156 304.019531 C 246.199219 304.515625 244 303.855469 244 302.09375 C 244 300.660156 243.667969 300.496094 242.398438 301.542969 C 239.933594 303.578125 237.734375 303.140625 234.199219 299.945312 C 230.464844 296.640625 228.132812 296.199219 210.066406 295.59375 C 199.132812 295.210938 196.265625 294.714844 194 292.953125 C 192.398438 291.738281 189.867188 290.75 188.265625 290.75 C 186.601562 290.75 183.535156 289.371094 181.332031 287.71875 C 179.132812 286.066406 176.601562 284.140625 175.667969 283.480469 C 174.734375 282.765625 173.132812 281.167969 172.066406 279.902344 C 170.933594 278.578125 169.265625 277.53125 168.265625 277.53125 C 167.332031 277.53125 166.867188 277.09375 167.265625 276.488281 C 167.734375 275.9375 167.066406 275 165.867188 274.449219 C 164.464844 273.789062 164 272.851562 164.667969 272.027344 C 166.601562 269.4375 166.601562 261.894531 164.667969 263.214844 C 163.464844 264.042969 162.734375 263.875 162.199219 262.664062 C 161.265625 260.628906 161.601562 259.25 163 259.636719 C 163.535156 259.800781 164 259.195312 164 258.261719 C 164 257.378906 163.066406 256.609375 162 256.609375 C 160.867188 256.609375 159.265625 255.339844 158.398438 253.855469 C 157.265625 251.816406 156.199219 251.265625 154.332031 251.761719 C 152.199219 252.3125 151.867188 252.039062 152.601562 250.109375 C 153.132812 248.734375 152.933594 247.796875 152.066406 247.796875 C 151.332031 247.796875 150.667969 246.53125 150.667969 245.042969 C 150.667969 243.503906 151.332031 242.289062 152.066406 242.289062 C 152.867188 242.289062 153.066406 241.683594 152.535156 241.023438 C 151.867188 240.144531 152.332031 239.921875 153.867188 240.472656 C 155.199219 240.859375 157 241.1875 157.867188 241.1875 C 158.800781 241.1875 160.265625 242.402344 161.066406 243.941406 C 163.066406 247.46875 167.066406 247.46875 169.332031 243.941406 C 170.332031 242.402344 171.734375 241.1875 172.535156 241.1875 C 175.332031 241.246094 185.332031 245.484375 185.332031 246.585938 C 185.332031 247.246094 186.265625 247.46875 187.332031 247.082031 C 188.464844 246.75 190.199219 247.027344 191.265625 247.742188 C 192.265625 248.457031 193.933594 248.898438 194.933594 248.734375 C 197.601562 248.292969 209.265625 249.945312 216 251.652344 C 227.601562 254.625 255.265625 256.386719 268.332031 254.957031 C 274.199219 254.351562 276 254.460938 276 255.5625 C 276 256.332031 276.398438 256.664062 276.867188 256.277344 C 277.332031 255.835938 278.535156 256.058594 279.535156 256.773438 C 280.867188 257.652344 281.867188 257.597656 283.332031 256.609375 C 284.464844 255.835938 285.332031 255.671875 285.332031 256.222656 C 285.464844 260.738281 293.332031 259.359375 293.332031 254.789062 C 293.332031 253.964844 294.265625 253.304688 295.332031 253.304688 C 296.464844 253.304688 297.332031 252.367188 297.332031 251.15625 C 297.332031 248.625 299.464844 247.191406 300.464844 249.175781 C 300.800781 249.945312 301.132812 248.789062 301.132812 246.695312 C 301.132812 241.1875 299.332031 237.664062 297.933594 240.472656 C 297.066406 242.289062 296.800781 242.347656 295.734375 240.75 C 295.066406 239.757812 293.800781 238.988281 292.933594 238.988281 C 292.066406 238.988281 290.535156 237.554688 289.601562 235.792969 C 286.066406 229.183594 278.933594 230.617188 281.199219 237.5 C 282.933594 242.675781 283.066406 245.703125 281.464844 245.320312 C 280.867188 245.152344 278.398438 246.421875 276.066406 248.183594 C 270.667969 252.09375 264.933594 252.808594 257.332031 250.550781 C 246.398438 247.246094 238.398438 245.816406 233.398438 246.367188 C 230 246.75 226.800781 246.199219 223 244.605469 C 219.265625 243.0625 213.734375 242.070312 205.734375 241.628906 C 185.601562 240.472656 176.265625 236.5625 178 230.121094 C 178.464844 228.304688 179.734375 226.871094 180.800781 226.871094 C 182.199219 226.871094 182.464844 226.101562 181.867188 224.0625 C 181.199219 221.972656 181.800781 220.484375 184.199219 218.390625 C 186.265625 216.519531 186.800781 215.417969 185.734375 215.089844 C 184.535156 214.703125 184.464844 213.933594 185.734375 211.675781 C 188.464844 206.441406 192 205.453125 191.535156 210.023438 C 191 216.132812 205.199219 223.789062 216.933594 223.625 C 218.601562 223.625 220.535156 224.558594 221.332031 225.769531 C 224.933594 231.386719 235.398438 231.664062 239.066406 226.265625 C 240.398438 224.230469 242.332031 224.285156 247.132812 226.320312 C 251.734375 228.304688 254.734375 228.414062 259.199219 226.707031 C 266.667969 223.898438 262.867188 218.722656 252.667969 217.785156 C 249.066406 217.457031 245.867188 216.683594 245.667969 216.078125 C 244.265625 212.71875 222.867188 206.554688 216.265625 207.597656 C 199.132812 210.351562 191.933594 204.515625 205.332031 198.789062 C 210.332031 196.640625 210.800781 196.640625 212.132812 198.402344 C 213 199.613281 213.667969 199.503906 215.601562 197.960938 C 217.734375 196.144531 217.734375 196.035156 215.601562 196.035156 C 211.867188 196.035156 213 193.445312 219.265625 187.71875 C 222.535156 184.691406 225.535156 181.058594 226 179.515625 C 227.332031 175.21875 229.265625 174.007812 234.464844 174.007812 C 241.933594 174.0625 243 175.21875 245.464844 185.792969 C 248.535156 198.789062 252.332031 205.945312 256.132812 205.945312 L 259.066406 205.945312 L 256.132812 203.800781 C 253.933594 202.257812 249.601562 193.226562 249.332031 189.757812 C 249.332031 189.59375 250.667969 188.492188 252.265625 187.28125 L 255.132812 185.023438 L 252.199219 182.488281 C 248.332031 179.019531 249.332031 172.191406 253.464844 174.339844 C 254.867188 175.054688 256 176.433594 256 177.476562 C 256 178.46875 257 179.570312 258.132812 179.957031 C 259.933594 180.507812 260 180.945312 258.601562 182.378906 C 257.398438 183.535156 257.265625 184.359375 258.199219 184.855469 C 259 185.242188 262.667969 187.554688 266.464844 189.921875 C 271.601562 193.226562 274.667969 194.328125 278.933594 194.492188 L 284.601562 194.769531 L 281.265625 192.566406 C 278.464844 190.695312 278.398438 190.472656 280.667969 190.914062 C 284.535156 191.683594 295.867188 192.730469 292.667969 192.015625 C 282.398438 189.703125 290.265625 189.152344 303.867188 191.246094 C 315 192.953125 304.132812 177.972656 290.132812 172.300781 C 279.132812 167.894531 282.535156 167.953125 301.398438 172.523438 L 312.800781 175.332031 L 313.132812 183.753906 L 313.464844 192.179688 L 308.398438 194.21875 C 286.667969 202.863281 287.398438 202.367188 290.734375 205.726562 L 293.199219 208.261719 L 298.933594 205.617188 C 311.535156 199.726562 313.199219 198.734375 313.734375 197.027344 C 314.265625 195.484375 323.464844 193.390625 325.066406 194.382812 C 325.667969 194.824219 320.199219 205.78125 317.933594 208.644531 C 311.734375 216.464844 289.265625 217.070312 267.933594 209.96875 C 259 206.9375 258.667969 207.105469 263.398438 211.675781 C 266 214.316406 266.535156 215.75 265.933594 218.558594 C 265.066406 222.410156 274.332031 227.3125 280.132812 226.046875 C 282.734375 225.496094 283.734375 222.46875 281.332031 222.46875 C 280.601562 222.46875 280 221.75 280 220.871094 C 280 219.164062 273.535156 215.859375 270.199219 215.859375 C 269.132812 215.859375 267.933594 215.03125 267.464844 214.097656 C 266.800781 212.71875 267.199219 212.5 269 213.050781 C 274 214.703125 291.265625 216.960938 298.667969 216.960938 C 312.464844 216.960938 318.066406 213.875 322.667969 203.800781 C 324.535156 199.667969 326.601562 197.027344 328.535156 196.253906 C 332.535156 194.769531 336.132812 188.324219 335.933594 183.09375 C 335.667969 177.476562 343.535156 161.34375 344.800781 164.921875 C 346.464844 169.714844 347.535156 167.347656 346.132812 161.894531 C 345.132812 157.820312 345.265625 155.011719 346.464844 151.210938 C 347.933594 146.695312 347.800781 145.265625 345.535156 139.371094 C 340.867188 127.421875 338.199219 114.261719 337.800781 100.882812 C 337.332031 85.296875 334.800781 79.679688 325.734375 74.339844 C 322.667969 72.523438 320.132812 70.648438 320.066406 70.152344 C 320 69.21875 316.867188 66.1875 307.199219 57.710938 C 301.601562 52.753906 294.066406 50.273438 299.332031 55.066406 C 303.800781 59.140625 298.667969 57.433594 286.601562 50.769531 C 280.132812 47.191406 273.464844 43.886719 271.800781 43.445312 C 270.132812 43.007812 265.933594 41.023438 262.464844 39.097656 C 258.734375 36.949219 252.199219 34.746094 246.398438 33.535156 C 241.066406 32.488281 231 29.902344 224 27.808594 C 211.199219 23.953125 186.667969 21.367188 186.667969 23.84375 Z M 154 43.117188 C 149.800781 44.328125 145.667969 45.042969 144.867188 44.824219 C 143 44.328125 151.398438 41.023438 156 40.472656 C 162.535156 39.703125 161.464844 41.023438 154 43.117188 Z M 183 120.320312 C 182.265625 122.6875 182.398438 122.6875 184.800781 120.980469 C 187.265625 119.21875 199.132812 118.558594 197.867188 120.210938 C 197.535156 120.648438 199.535156 120.761719 202.332031 120.484375 C 210 119.714844 215 119.988281 216.933594 121.3125 C 218.199219 122.191406 218.667969 122.191406 218.667969 121.253906 C 218.667969 120.59375 219.265625 120.042969 220 120.042969 C 223.601562 120.042969 216.867188 127.699219 213.199219 127.808594 C 212.066406 127.808594 212.867188 128.964844 215.066406 130.5625 C 218.464844 132.984375 220 133.261719 231.734375 133.371094 C 245.265625 133.535156 251.265625 133.921875 254.066406 134.800781 C 255 135.078125 256 134.417969 256.398438 133.261719 C 257.265625 130.453125 267.933594 126.652344 271.132812 127.972656 C 272.867188 128.746094 274 128.523438 275.132812 127.203125 C 276.933594 125.21875 284.867188 123.402344 292.332031 123.347656 C 295.066406 123.347656 297.332031 122.90625 297.332031 122.355469 C 297.332031 121.859375 298.535156 121.144531 300 120.816406 C 301.464844 120.484375 302.332031 120.703125 301.933594 121.253906 C 300.933594 122.578125 301.867188 122.523438 306 120.925781 C 310.265625 119.328125 310.933594 120.042969 314.199219 128.855469 C 318.734375 141.300781 321.667969 159.582031 320.464844 168.226562 C 319.667969 173.953125 317.332031 175.273438 317.332031 169.933594 C 317.332031 165.472656 310.734375 157.875 304.601562 155.285156 C 299.667969 153.140625 294.734375 152.203125 277.535156 150.164062 C 270.867188 149.339844 257.398438 151.707031 256.398438 153.855469 C 256 154.625 254.867188 155.285156 253.867188 155.285156 C 251.800781 155.285156 249.933594 160.023438 251.265625 161.839844 C 252.667969 163.65625 240.066406 163.269531 232.933594 161.234375 C 227.265625 159.636719 226.734375 159.25 227.535156 156.71875 C 228.132812 154.734375 227.535156 153.304688 225.535156 151.597656 C 220.265625 147.191406 216.398438 142.621094 216.933594 141.410156 C 217.464844 140.144531 206.734375 135.1875 202.132812 134.527344 C 187.535156 132.433594 161.734375 133.261719 155.535156 135.957031 L 149.132812 138.820312 L 151.867188 135.628906 C 153.332031 133.921875 158 130.066406 162.265625 127.09375 C 166.464844 124.117188 171 120.816406 172.332031 119.769531 C 176 116.738281 183.933594 117.125 183 120.320312 Z M 124.464844 140.96875 C 123.734375 143.996094 124 144.273438 127.535156 144.382812 C 130.398438 144.4375 129.464844 144.988281 123.332031 146.585938 C 113.132812 149.230469 112.398438 148.953125 117.332031 144.492188 C 119.535156 142.457031 121.332031 140.144531 121.332031 139.261719 C 121.332031 138.382812 122.199219 137.664062 123.332031 137.664062 C 124.800781 137.664062 125.066406 138.492188 124.464844 140.96875 Z M 182 152.09375 C 183.867188 152.699219 182.734375 152.972656 178 153.082031 C 174.332031 153.140625 168.667969 153.632812 165.332031 154.183594 C 154.199219 155.945312 154 155.945312 154.398438 153.910156 C 154.667969 152.589844 153.867188 151.925781 151.734375 151.816406 C 150.066406 151.707031 151.398438 151.320312 154.667969 150.882812 C 161.398438 150.054688 177.933594 150.769531 182 152.09375 Z M 304.332031 165.804688 C 306.601562 166.519531 307.601562 168.503906 305.667969 168.503906 C 305.132812 168.503906 301.066406 167.511719 296.667969 166.355469 L 288.667969 164.261719 L 295.332031 164.648438 C 299 164.867188 303.066406 165.363281 304.332031 165.804688 Z M 134.667969 172.191406 C 134.667969 181.113281 139.800781 187.941406 149.867188 192.289062 C 153.867188 193.996094 156.867188 195.816406 156.464844 196.253906 C 156.132812 196.75 156.601562 197.300781 157.601562 197.523438 C 172.535156 200.824219 184 204.515625 183.667969 205.945312 C 183 208.8125 166.535156 217.015625 163.867188 215.804688 C 160.667969 214.371094 160 214.480469 160 216.355469 C 160 217.234375 158.398438 218.0625 156.332031 218.28125 C 154.132812 218.445312 152.667969 219.273438 152.667969 220.265625 C 152.667969 222.355469 149 223.679688 147.667969 222.027344 C 146.265625 220.265625 146.464844 218.941406 148 219.714844 C 148.734375 220.097656 149.332031 219.933594 149.332031 219.382812 C 149.332031 217.621094 142.800781 217.125 141.199219 218.777344 C 138.867188 221.035156 136.933594 220.59375 134 216.960938 C 132.535156 215.144531 130.867188 213.65625 130.332031 213.65625 C 129.800781 213.65625 129.332031 213.160156 129.332031 212.5 C 129.332031 211.894531 127.867188 210.1875 126 208.8125 C 124.199219 207.433594 123 206.003906 123.398438 205.671875 C 123.800781 205.394531 122.933594 203.304688 121.398438 201.101562 C 119.867188 198.898438 118.667969 196.367188 118.667969 195.429688 C 118.667969 194.546875 118.132812 193.832031 117.464844 193.832031 C 116.800781 193.832031 115.933594 193.0625 115.464844 192.125 C 115.066406 191.1875 115.199219 190.695312 115.867188 191.023438 C 116.535156 191.355469 117.398438 190.914062 117.800781 190.03125 C 118.535156 188.492188 114.132812 186.453125 111.464844 187.058594 C 110.800781 187.226562 111 186.5625 111.933594 185.628906 C 113.332031 184.25 113.265625 183.8125 111.667969 183.316406 C 108.398438 182.269531 108.601562 172.136719 112 171.253906 C 113.464844 170.871094 115.132812 170.816406 115.734375 171.089844 C 116.332031 171.421875 117.601562 171.253906 118.667969 170.703125 C 119.867188 170.097656 121.867188 170.539062 124.332031 172.027344 C 126.464844 173.238281 128.332031 174.0625 128.535156 173.84375 C 128.800781 173.625 129.667969 172.355469 130.535156 170.980469 C 132.800781 167.402344 134.667969 167.953125 134.667969 172.191406 Z M 145.398438 173.074219 C 147.800781 172.851562 151 173.183594 152.535156 173.789062 C 170.535156 180.835938 194.066406 183.371094 201.464844 179.128906 C 203.199219 178.140625 205 177.3125 205.464844 177.3125 C 206.800781 177.3125 209.800781 183.867188 208.867188 184.691406 C 208.398438 185.078125 208 184.800781 208 184.085938 C 208 181.058594 202.867188 182.984375 200.601562 186.894531 C 198.398438 190.75 198.199219 190.859375 197.199219 188.546875 C 196.066406 186.066406 194.066406 185.40625 192.734375 187.113281 C 192.332031 187.664062 192.933594 188.382812 194.066406 188.765625 C 195.464844 189.207031 195.867188 190.144531 195.398438 191.519531 C 193.464844 196.53125 203.800781 195.59375 209.667969 190.253906 C 211.667969 188.4375 213.332031 187.445312 213.332031 188.050781 C 213.332031 190.859375 202.601562 197.136719 197.667969 197.246094 C 158.933594 198.292969 137.199219 188.875 137.398438 171.253906 L 137.398438 167.953125 L 139.265625 170.703125 C 140.734375 172.90625 141.933594 173.402344 145.398438 173.074219 Z M 294.800781 176.871094 C 300.332031 181.222656 298.867188 181.222656 290 176.816406 C 280.265625 171.972656 280.132812 171.804688 286.066406 172.90625 C 288.734375 173.402344 292.667969 175.21875 294.800781 176.871094 Z M 325.265625 181.664062 C 327.601562 185.1875 326.867188 186.949219 322.667969 188.160156 C 317.601562 189.648438 316.734375 188.324219 319.667969 183.480469 C 322.332031 179.019531 323.332031 178.6875 325.265625 181.664062 Z M 325.265625 181.664062 " stroke="none" fill-rule="nonzero" fill="rgb(0%,0%,0%)" fill-opacity="1"/>
    <path d="M 88 205.945312 C 88 207.214844 93.933594 212.554688 95.398438 212.554688 C 95.734375 212.554688 96 211.5625 96 210.351562 C 96 209.140625 95.265625 208.148438 94.464844 208.148438 C 93.601562 208.148438 91.800781 207.324219 90.464844 206.332031 C 88.667969 205.011719 88 204.902344 88 205.945312 Z M 88 205.945312 " stroke="none" fill-rule="nonzero" fill="rgb(0%,0%,0%)" fill-opacity="1"/>
    <path d="M 104.535156 259.359375 C 105 263.601562 105.398438 270.265625 105.464844 274.230469 C 105.601562 280.835938 105.734375 281.058594 106.667969 276.980469 C 107.265625 274.558594 107.535156 272.300781 107.265625 271.917969 C 107 271.585938 106.667969 267.511719 106.535156 262.941406 C 106.398438 258.371094 105.734375 253.964844 105.066406 253.140625 C 104.199219 252.148438 104.066406 254.351562 104.535156 259.359375 Z M 104.535156 259.359375 " stroke="none" fill-rule="nonzero" fill="rgb(0%,0%,0%)" fill-opacity="1"/>
    <path d="M 190.667969 258.976562 C 190.667969 261.730469 197.734375 269.164062 199.199219 267.953125 C 199.601562 267.566406 200 267.839844 200 268.558594 C 200 269.21875 201.265625 269.824219 202.734375 269.824219 C 204.535156 269.824219 205.132812 270.265625 204.535156 271.089844 C 203.933594 271.972656 204.265625 272.191406 205.535156 271.75 C 206.667969 271.421875 214.601562 271.75 223.132812 272.523438 C 245.199219 274.503906 254.535156 272.523438 247.667969 267.234375 C 241.464844 262.5 238.199219 261.011719 233.800781 261.011719 C 231.398438 261.011719 229.066406 260.460938 228.601562 259.855469 C 228.066406 259.085938 222.066406 258.753906 211.535156 258.976562 C 202.601562 259.140625 194.265625 258.921875 193 258.371094 C 191.332031 257.765625 190.667969 257.929688 190.667969 258.976562 Z M 190.667969 258.976562 " stroke="none" fill-rule="nonzero" fill="rgb(0%,0%,0%)" fill-opacity="1"/>
    <path d="M 106.199219 282.652344 C 105.734375 283.09375 105.332031 287.390625 105.332031 292.234375 C 105.332031 303.359375 106.199219 302.808594 107.199219 291.023438 C 107.933594 281.9375 107.867188 281.332031 106.199219 282.652344 Z M 106.199219 282.652344 " stroke="none" fill-rule="nonzero" fill="rgb(0%,0%,0%)" fill-opacity="1"/>
    <path d="M 100.464844 306.882812 C 92.199219 310.1875 90.332031 319.4375 98.265625 317.785156 C 100.332031 317.347656 101.332031 317.621094 101.332031 318.613281 C 101.332031 319.382812 103.066406 321.144531 105.199219 322.410156 L 109.066406 324.835938 L 107.867188 321.089844 C 107.132812 318.996094 106.132812 314.59375 105.601562 311.234375 L 104.667969 305.175781 Z M 100.464844 306.882812 " stroke="none" fill-rule="nonzero" fill="rgb(0%,0%,0%)" fill-opacity="1"/>
  </g>
</svg>